<?xml version="1.0" encoding="UTF-8"?><svg id="uuid-36096db9-e6d6-4ead-b6c6-4aee04678126" xmlns="http://www.w3.org/2000/svg" width="235.3mm" height="235.3mm" viewBox="0 0 667 667"><rect width="667" height="667" style="fill:#00154c;"/><path d="M345.73,314.66v-75.32c-4.09-.54-8.25-.82-12.48-.82s-8.57.3-12.73.86v75.28h25.22Z" style="fill:#fdda5a;"/><path d="M215.62,172.83l9.45,13,95.44,7.97v9.33c4.21-.4,8.45-.61,12.73-.61s8.36.2,12.48.59v-9.31l93.48-7.68,10.74-13.29-104.22-8.45v-7.09c8.47-4.6,14.23-13.57,14.23-23.89,0-15-12.16-27.16-27.16-27.16s-27.16,12.16-27.16,27.16c0,3.66.74,7.15,2.05,10.33,4.9-3.49,9.75-6.94,13.33-9.49,0-.12-.02-.23-.02-.35,0-6.52,5.29-11.81,11.81-11.81s11.81,5.29,11.81,11.81c0,4.99-3.09,9.24-7.46,10.98l-2.47,1.76-14.87,10.62c.22.12.44.25.67.37v6.76l-104.89,8.45Z" style="fill:#fdda5a;"/><path d="M362.63,311.41c-.73-.06-1.45-.05-2.17-.01-2.24-5.11-4.71-10.73-6.47-14.73,2.05-.98,3.92-2.4,5.45-4.28,5.55-6.8,4.54-16.81-2.26-22.36-1.02-.83-3.22-2.99-5.58-5.31v9.72c.44.4.82.74,1.15,1,3.8,3.1,4.37,8.71,1.27,12.51-.68.84-1.51,1.52-2.41,2.05v24.68s0,0,0,.02c-3.4,2.64-5.74,6.63-6.11,11.25-.23,2.86-2.46,13.85-2.76,17.56-.55,6.7,3.16,12.76,8.85,15.55-.63,3.84-1.31,8.05-1.95,11.98-5.46.88-10.3,4.59-12.37,10.14-1,2.69-6.13,12.65-7.43,16.14-2.18,5.86-.67,12.19,3.35,16.45-1.95,3.31-4.1,6.95-6.11,10.37-.81-.13-1.62-.19-2.43-.19-5.07,0-10.05,2.42-13.13,6.91-1.62,2.37-9.01,10.8-11.11,13.87-4.15,6.06-3.52,13.96,1.03,19.29l-3.82,5.59,9.38,2.97,2.38-3.53c1.36.37,2.74.56,4.13.56,5.07,0,10.05-2.42,13.13-6.91,1.62-2.37,9.01-10.8,11.11-13.87,4.5-6.57,3.38-15.3-2.26-20.57,1.93-3.28,3.96-6.73,5.81-9.89,1.15.26,2.3.4,3.44.4,6.45,0,12.51-3.95,14.9-10.35,1-2.69,6.13-12.65,7.43-16.14,2.92-7.82-.73-16.47-8.17-19.94.63-3.87,1.3-8.01,1.91-11.81,7.2-1.01,13.01-6.89,13.63-14.44.23-2.86,2.46-13.85,2.76-17.56.71-8.75-5.8-16.42-14.55-17.13ZM331.95,444.89c-.94,1.37-3.63,4.62-5.8,7.23-2.71,3.27-4.42,5.34-5.31,6.64-1.62,2.36-4.27,3.78-7.13,3.86l2.71-4.03h0c.32-.57.53-1.2.59-1.88.22-2.57-1.68-4.83-4.25-5.05-1.67-.14-3.2.62-4.14,1.87h0s-2.98,4.35-2.98,4.35c-.41-.78-.7-1.62-.87-2.51-.44-2.34.06-4.7,1.41-6.66.94-1.37,3.63-4.62,5.8-7.23,2.71-3.27,4.42-5.34,5.31-6.64,1.34-1.95,3.39-3.25,5.67-3.69-1.94,3.29-3.34,5.68-3.66,6.23-1.29,2.23-.52,5.09,1.71,6.38s5.09.52,6.38-1.71c.18-.31,1.95-3.32,4.38-7.46,2.19,2.96,2.39,7.1.19,10.31ZM360.24,383.04c.99,2.16,1.07,4.58.24,6.8-.58,1.55-2.41,5.36-3.88,8.41-1.84,3.83-3,6.25-3.55,7.73-1.24,3.32-4.36,5.57-7.87,5.76,1.06-1.8,1.89-3.21,2.37-4.03.15-.2.27-.42.38-.65.05-.09.08-.14.08-.14h0c.27-.59.42-1.24.42-1.92,0-2.58-2.09-4.67-4.67-4.67-1.68,0-3.14.89-3.96,2.22h0s-1.11,1.87-2.79,4.73c-1.26-2.21-1.57-4.95-.62-7.51.58-1.55,2.41-5.36,3.88-8.41,1.84-3.83,3-6.25,3.55-7.73.83-2.22,2.5-3.96,4.57-4.94-.6,3.7-1.03,6.38-1.13,7-.39,2.55,1.36,4.93,3.91,5.33,2.55.39,4.93-1.36,5.33-3.91.05-.32.52-3.23,1.18-7.34,1.09.86,1.97,1.97,2.56,3.27ZM370.2,327.98c-.13,1.65-.86,5.81-1.45,9.15-.73,4.18-1.19,6.83-1.32,8.41-.28,3.42-2.47,6.23-5.43,7.47.38-2.33.68-4.18.84-5.2.06-.24.1-.49.12-.74.02-.1.03-.16.03-.16h0c.04-.64-.05-1.3-.3-1.94-.94-2.4-3.64-3.59-6.05-2.66-1.56.61-2.6,1.97-2.89,3.51h0s-.37,2.28-.94,5.76c-2.1-1.79-3.34-4.52-3.1-7.48.13-1.65.86-5.81,1.45-9.15.73-4.18,1.19-6.83,1.32-8.41.16-1.99.98-3.76,2.21-5.15,1.07,2.38,2.1,4.72,2.45,5.74.85,2.44,3.51,3.73,5.94,2.88,2.44-.85,3.73-3.51,2.88-5.94-.09-.26-1-2.36-2.31-5.38,4.07,1.09,6.91,4.96,6.56,9.31Z" style="fill:#fdda5a;"/><path d="M314.84,237.85c-.99-2.69-3.59-13.6-4.88-17.09-2.29-6.22-8.08-10.14-14.32-10.38-.78-2.82-1.62-5.9-2.45-8.93,1.25-.85,2.37-1.87,3.34-3.04-8.7-.79-17.64-1.59-26.13-2.35,2.25,4.03,6.23,7.05,11.14,7.9.92.16,1.83.24,2.74.24.79,2.91,1.6,5.85,2.34,8.58-6.26,3.9-9.14,11.78-6.49,18.97.99,2.69,3.59,13.6,4.88,17.09,2.37,6.42,8.45,10.4,14.91,10.4,1.83,0,3.68-.32,5.49-.98.65-.24,1.26-.52,1.85-.83,2.62,2.56,5.5,5.37,8.24,8.05v-13.04c-.54-.53-1.08-1.05-1.61-1.57,2.08-3.87,2.57-8.58.93-13.02ZM304.96,242.14c-.16-.19-.35-.36-.54-.53-.07-.07-.12-.12-.12-.12h0c-.51-.39-1.1-.7-1.76-.87-.37-.09-.75-.14-1.12-.14-2.1,0-4.01,1.43-4.53,3.56-.4,1.63.12,3.26,1.21,4.38h0s1.45,1.42,3.68,3.6c-.61.13-1.22.2-1.84.2-3.71,0-7.06-2.34-8.35-5.82-.57-1.56-1.66-5.63-2.54-8.91-1.1-4.1-1.8-6.69-2.34-8.18-1.21-3.29-.34-6.84,1.93-9.22.69,2.53,1.18,4.3,1.32,4.78.7,2.48,3.28,3.92,5.77,3.22,2.48-.7,3.92-3.28,3.22-5.77-.07-.24-.55-1.98-1.26-4.59,2.6.81,4.75,2.78,5.72,5.42.57,1.56,1.66,5.63,2.54,8.91,1.1,4.1,1.8,6.69,2.34,8.18.64,1.74.72,3.59.25,5.35-1.6-1.56-2.85-2.78-3.56-3.47Z" style="fill:#fdda5a;"/><path d="M330.34,135.59c-1.53-.68-3.23-.46-4.52.42h0s-15.71,11.17-25.45,18.12c-2.22-2.17-5.09-3.72-8.37-4.29-.92-.16-1.84-.24-2.75-.24-7.58,0-14.29,5.44-15.64,13.16-.01.07-.03.15-.04.23l7.37-.62c1.28-3.42,4.55-5.77,8.31-5.77.51,0,1.03.05,1.55.14,1.37.24,2.63.79,3.71,1.58-.8.57-1.37.98-1.59,1.14-.73.53-1.26,1.24-1.57,2.03l16.79-1.42c8.43-6.02,19.71-14.07,22.68-16.19.22-.13.42-.28.61-.44.08-.06.14-.1.14-.1h0c.48-.43.89-.96,1.17-1.59,1.05-2.36,0-5.12-2.36-6.17Z" style="fill:#fdda5a;"/><path d="M367.51,382.73v8.09c.73-2.73.68-5.5,0-8.09Z" style="fill:#fdda5a;"/><path d="M324.31,418.97l2.83-4.8c-3.54-5.48-4.34-12.31-2-18.58.77-2.07,2.57-5.81,4.31-9.43,1.28-2.66,2.73-5.67,3.12-6.71,2.18-5.85,6.86-10.37,12.65-12.41l.51-3.1v-2.66c-3.4-2.64-5.88-6.22-7.12-10.27h-18.09v68.37c1.24-.25,2.51-.39,3.8-.41Z" style="fill:#fdda5a;"/><path d="M298.14,346h39.57c-.03-.46-.04-.93-.03-1.4,0-.01,0-.03,0-.04,0-.48.03-.96.07-1.45.18-2.2.9-6.29,1.59-10.25.51-2.91,1.09-6.2,1.18-7.31.05-.56.12-1.11.21-1.65.05-.28.11-.56.17-.84.05-.24.1-.47.16-.71.09-.37.19-.74.3-1.1.03-.11.07-.22.1-.33.14-.43.28-.85.45-1.26h0s-43.76,0-43.76,0v-55.42h-28.77v138.67h28.77v-56.91Z" style="fill:#fdda5a;"/><path d="M367.51,264.24v13.63c.07.31.12.62.18.94.04.21.07.43.1.64.07.5.12.99.16,1.49.01.18.02.37.03.55.02.56.02,1.11,0,1.67,0,.14,0,.28-.02.42-.06,1.08-.21,2.16-.44,3.23v20.48c.2.06.39.14.58.2.36.12.71.25,1.06.39.23.09.45.19.68.29.32.14.64.3.96.45.2.1.41.2.61.31.49.27.96.55,1.43.85.1.06.19.13.28.2.39.27.77.55,1.15.84.15.12.31.25.46.38.32.27.63.55.94.83.13.13.27.25.4.38.42.42.83.85,1.22,1.31,3.61,4.25,5.35,9.66,4.9,15.22-.18,2.2-.9,6.29-1.59,10.25-.51,2.91-1.09,6.2-1.18,7.31-.04.51-.1,1.01-.18,1.5-.03.17-.06.34-.09.5-.06.32-.11.64-.19.96-.05.2-.1.4-.15.6-.07.27-.14.55-.22.81-.07.22-.14.43-.21.65-.08.24-.17.48-.26.72-.09.23-.18.45-.27.67-.09.22-.18.43-.28.64-.11.24-.22.47-.33.7-.09.18-.19.36-.29.55-.13.25-.27.49-.41.73-.08.14-.18.28-.26.42-.17.27-.34.54-.52.8-.05.07-.1.13-.15.2-1.27,1.78-2.8,3.34-4.56,4.64,0,0,0,0,0,0-.35.26-.72.51-1.09.75-.01,0-.03.02-.04.03-.37.24-.75.46-1.13.67-.01,0-.03.01-.04.02-.39.22-.79.42-1.2.61v8.95c1.6,1.75,2.88,3.76,3.8,5.92,0,.01.01.03.02.04.16.38.31.76.44,1.15.03.1.07.19.1.29.12.35.23.71.33,1.07.04.13.07.27.11.41.09.34.18.69.25,1.03.03.16.06.31.09.47.19,1.04.31,2.1.34,3.16,0,.28.02.57.02.85,0,.24-.02.47-.03.71-.01.3-.03.6-.06.9-.02.23-.04.45-.07.68-.04.32-.09.63-.14.95-.04.21-.07.42-.11.63-.07.35-.16.7-.25,1.05-.04.17-.08.35-.13.52-.15.52-.31,1.04-.51,1.56-.09.25-.21.53-.33.83-.04.1-.09.21-.13.32-.09.21-.17.42-.27.64-.06.14-.13.3-.2.44-.09.21-.18.41-.28.63-.08.17-.16.35-.24.52-.1.21-.19.42-.29.64-.09.2-.19.41-.29.61-.09.2-.19.4-.28.61-.11.23-.22.47-.33.71-.09.19-.18.38-.27.57-.12.26-.25.51-.37.77-.09.18-.17.36-.26.54-.16.32-.31.65-.47.97-.01.03-.03.06-.04.09h28.6v-138.67h-28.77Z" style="fill:#fdda5a;"/><path d="M297.62,453.35s0,0,0,0c0,0,0-.02,0-.02,0,0,0,.02,0,.02Z" style="fill:#fdda5a;"/><path d="M292.72,451.78s0,0,0,0c.03-.38.08-.76.14-1.14.01-.07.02-.15.03-.22.05-.34.12-.68.19-1.01.02-.12.05-.23.07-.35.07-.31.15-.61.23-.91.04-.15.08-.3.13-.45.08-.28.17-.55.26-.82.06-.18.13-.36.2-.54.09-.24.18-.49.29-.73.09-.21.19-.42.28-.63.1-.21.19-.42.29-.62.13-.26.27-.51.41-.76.09-.16.17-.32.26-.47.24-.41.49-.81.77-1.21,1.25-1.82,3.9-5.02,6.46-8.11.31-.38.63-.76.95-1.14.02-.03.05-.06.07-.09.32-.39.64-.78.96-1.16-42.43-12.35-73.44-51.51-73.44-97.93,0-36.15,18.81-67.91,47.18-86.02-1.73-6.25-3.75-14.28-4.7-16.85-.77-2.1-1.2-4.25-1.32-6.37-9.98,5.58-19.26,12.56-27.56,20.87-23.61,23.61-36.61,54.99-36.61,88.37s13,64.77,36.61,88.37c13.7,13.7,30.03,23.82,47.85,29.91Z" style="fill:#fdda5a;"/><path d="M482.4,415.39l-7.09,12.11,8.27,4.73s-91.47,40.65-137.86,48.14v-22.51c28.67-2.82,55.25-15.35,75.89-35.99,23.61-23.61,36.61-54.99,36.61-88.37s-13-64.77-36.61-88.37c-23.61-23.61-54.99-36.61-88.37-36.61-7.28,0-14.47.62-21.51,1.83,1.14,1.58,2.1,3.32,2.81,5.24,1.18,3.21,3.18,11,4.77,16.88,4.55-.62,9.2-.95,13.93-.95,56.32,0,101.98,45.66,101.98,101.98,0,52.26-39.32,95.34-89.99,101.27-.11.01-.21.02-.32.03.03.12.05.24.08.36.08.33.15.66.21.99.03.17.06.34.09.5.05.35.1.7.14,1.06h0c.01.13.03.25.04.38,0,0,0,.01,0,.02.03.4.05.8.06,1.2,0,.16,0,.32,0,.49,0,.34,0,.68-.02,1.02,0,.12,0,.25-.02.37-.03.44-.07.88-.13,1.32-.02.14-.04.28-.06.42-.05.35-.11.69-.18,1.04-.03.13-.05.25-.08.38-.1.44-.21.89-.34,1.33-.02.06-.04.12-.06.19-.01.04-.03.09-.04.13-.11.36-.23.72-.37,1.07-.05.12-.09.24-.14.37-.17.44-.36.88-.56,1.31-.03.06-.07.13-.1.19-.18.38-.38.75-.59,1.12-.07.12-.13.23-.2.35-.25.42-.51.85-.79,1.26-.15.21-.31.45-.5.7-.06.09-.14.18-.2.27-.13.17-.25.34-.39.52-.09.11-.18.23-.27.34-.08.11-.17.22-.26.34-.05.07-.1.13-.16.2-.1.13-.21.26-.31.39-.14.18-.29.37-.44.55-.11.14-.23.28-.34.43-.15.19-.31.38-.46.57-.13.16-.25.31-.38.47-.11.14-.23.28-.34.41-.42.52-.86,1.04-1.3,1.57h0c-.37.45-.74.89-1.11,1.34-1.88,2.27-4.02,4.85-4.65,5.76-2.53,3.69-6.13,6.41-10.23,7.87v7c-3.52-.56-7.3-1.3-11.27-2.2l-.2.29-3.57-1.13-.61-.19c-49.1-12.02-123.43-44.64-123.43-44.64l9.43-5.6-7.97-12.7-49.16,27.97,9.75,14.84,14.4-9.53,175.37,112.61,174.56-112.24,14.77,8.86,8.57-13.88-48.73-27.47Z" style="fill:#fdda5a;"/></svg>