<?xml version="1.0" encoding="UTF-8"?><svg id="uuid-f75324d8-fec1-4d12-b47f-c98c06f1dded" xmlns="http://www.w3.org/2000/svg" width="235.3mm" height="235.3mm" viewBox="0 0 667 667"><rect width="667" height="667" style="fill:#01a9aa;"/><path d="M183.55,413.03h-51.13v-164.75h51.13v164.75Z" style="fill:#fff;"/><path d="M259.62,347.82v65.21h-49.4v-164.75h49.4v55.82h47.42v-55.82h49.4v164.75h-49.4v-65.21h-47.42Z" style="fill:#fff;"/><path d="M536.65,331.77c0,49.89-35.07,84.97-84.97,84.97s-84.72-35.07-84.72-86.2,34.58-85.95,84.72-85.95,84.97,34.83,84.97,87.19ZM418.1,330.53c0,27.42,13.09,44.95,33.84,44.95s33.59-17.54,33.59-44.46-13.09-45.2-33.84-45.2-33.59,17.54-33.59,44.71Z" style="fill:#fff;"/></svg>