<?xml version="1.0" encoding="UTF-8"?><svg id="uuid-0d4fc8fd-8217-4339-8f76-2243238eb027" xmlns="http://www.w3.org/2000/svg" width="235.3mm" height="235.3mm" viewBox="0 0 667 667"><rect width="667" height="667" style="fill:#f0ebd8;"/><path d="M109.69,232.12c1.04-3.3,2.59-6.23,4.66-8.77,2.07-2.54,4.67-4.56,7.81-6.07,3.13-1.5,6.77-2.26,10.92-2.26s7.77.75,10.88,2.26,5.7,3.53,7.77,6.07c2.07,2.54,3.63,5.46,4.66,8.77,1.04,3.31,1.55,6.78,1.55,10.43s-.52,7.13-1.55,10.43c-1.04,3.31-2.59,6.22-4.66,8.73-2.07,2.52-4.66,4.53-7.77,6.03s-6.73,2.26-10.88,2.26-7.78-.75-10.92-2.26c-3.13-1.5-5.74-3.51-7.81-6.03-2.07-2.52-3.63-5.43-4.66-8.73-1.04-3.3-1.55-6.78-1.55-10.43s.52-7.13,1.55-10.43ZM114.31,251.03c.76,2.79,1.95,5.28,3.55,7.47,1.6,2.2,3.66,3.96,6.18,5.29,2.52,1.33,5.52,2,9.03,2s6.5-.67,8.99-2c2.49-1.33,4.54-3.1,6.14-5.29,1.6-2.19,2.79-4.69,3.55-7.47s1.15-5.61,1.15-8.47-.38-5.75-1.15-8.51c-.76-2.76-1.95-5.24-3.55-7.44-1.6-2.19-3.65-3.96-6.14-5.29-2.49-1.33-5.49-2-8.99-2s-6.51.67-9.03,2c-2.52,1.33-4.58,3.1-6.18,5.29-1.6,2.2-2.79,4.67-3.55,7.44-.77,2.76-1.15,5.6-1.15,8.51s.38,5.69,1.15,8.47Z" style="fill:#00154c;"/><path d="M172.37,230.79v8.95h.15c1.18-3.11,3.02-5.5,5.51-7.18,2.49-1.68,5.46-2.44,8.92-2.29v4.66c-2.12-.1-4.04.19-5.77.85-1.73.67-3.22,1.62-4.48,2.85-1.26,1.23-2.23,2.7-2.92,4.4-.69,1.7-1.04,3.56-1.04,5.59v20.35h-4.66v-38.18h4.29Z" style="fill:#00154c;"/><path d="M225.9,273.49c-.62,2.27-1.59,4.19-2.92,5.77-1.33,1.58-3.07,2.79-5.22,3.63-2.15.84-4.77,1.26-7.88,1.26-1.92,0-3.8-.22-5.62-.67-1.83-.44-3.47-1.13-4.92-2.07-1.46-.94-2.66-2.13-3.63-3.59s-1.52-3.19-1.67-5.22h4.66c.25,1.43.73,2.63,1.44,3.59.71.96,1.58,1.74,2.59,2.33,1.01.59,2.13,1.02,3.37,1.29,1.23.27,2.49.41,3.77.41,4.34,0,7.47-1.23,9.4-3.7s2.89-6.02,2.89-10.66v-5.18h-.15c-1.08,2.37-2.68,4.27-4.77,5.7-2.1,1.43-4.55,2.15-7.36,2.15-3.06,0-5.67-.51-7.84-1.52-2.17-1.01-3.96-2.41-5.37-4.18-1.41-1.78-2.43-3.86-3.07-6.25-.64-2.39-.96-4.95-.96-7.66s.38-5.09,1.15-7.44c.76-2.34,1.87-4.39,3.33-6.14,1.45-1.75,3.26-3.13,5.4-4.14,2.15-1.01,4.6-1.52,7.36-1.52,1.43,0,2.78.2,4.03.59,1.26.4,2.41.95,3.44,1.67,1.04.72,1.96,1.54,2.77,2.48.81.94,1.44,1.92,1.89,2.96h.15v-6.59h4.66v35.08c0,2.81-.31,5.35-.92,7.62ZM215.21,263.31c1.53-.86,2.81-2,3.85-3.4,1.04-1.41,1.81-3.02,2.33-4.85.52-1.82.78-3.7.78-5.62s-.22-3.75-.67-5.62c-.44-1.87-1.16-3.58-2.15-5.11-.99-1.53-2.26-2.76-3.81-3.7-1.55-.94-3.44-1.41-5.66-1.41s-4.12.46-5.7,1.37c-1.58.91-2.89,2.11-3.92,3.59-1.04,1.48-1.79,3.17-2.26,5.07-.47,1.9-.7,3.84-.7,5.81s.25,3.8.74,5.62c.49,1.83,1.26,3.44,2.29,4.85,1.04,1.41,2.34,2.54,3.92,3.4,1.58.86,3.45,1.29,5.62,1.29,2.02,0,3.8-.43,5.33-1.29Z" style="fill:#00154c;"/><path d="M239.85,236.71c.79-1.63,1.86-2.96,3.22-4,1.36-1.04,2.95-1.8,4.77-2.29,1.83-.49,3.85-.74,6.07-.74,1.68,0,3.35.16,5.03.48,1.68.32,3.18.92,4.51,1.81,1.33.89,2.42,2.13,3.26,3.74.84,1.6,1.26,3.69,1.26,6.25v20.28c0,1.88.91,2.81,2.74,2.81.54,0,1.04-.1,1.48-.3v3.92c-.54.1-1.02.17-1.44.22-.42.05-.95.07-1.59.07-1.18,0-2.13-.16-2.85-.48-.72-.32-1.27-.78-1.67-1.37-.4-.59-.66-1.29-.78-2.11-.12-.81-.18-1.71-.18-2.7h-.15c-.84,1.23-1.69,2.33-2.55,3.29-.86.96-1.83,1.76-2.89,2.41-1.06.64-2.27,1.13-3.63,1.48-1.36.34-2.97.52-4.85.52-1.78,0-3.44-.21-5-.63s-2.91-1.08-4.07-2c-1.16-.91-2.07-2.07-2.74-3.48-.67-1.41-1-3.07-1-5,0-2.66.59-4.75,1.78-6.25,1.18-1.5,2.75-2.65,4.7-3.44,1.95-.79,4.14-1.34,6.59-1.67,2.44-.32,4.92-.63,7.44-.92.99-.1,1.85-.22,2.59-.37s1.36-.41,1.85-.78.88-.88,1.15-1.52c.27-.64.41-1.48.41-2.52,0-1.58-.26-2.87-.78-3.89-.52-1.01-1.23-1.81-2.15-2.4-.91-.59-1.97-1-3.18-1.22-1.21-.22-2.5-.33-3.88-.33-2.96,0-5.38.7-7.25,2.11-1.88,1.41-2.86,3.66-2.96,6.77h-4.66c.15-2.22.62-4.14,1.41-5.77ZM263.16,248.1c-.3.54-.86.94-1.7,1.18-.84.25-1.58.42-2.22.52-1.97.35-4.01.65-6.11.92-2.1.27-4.01.68-5.73,1.22-1.73.54-3.15,1.32-4.25,2.33-1.11,1.01-1.67,2.45-1.67,4.33,0,1.18.23,2.23.7,3.14.47.91,1.1,1.7,1.89,2.37.79.67,1.7,1.17,2.74,1.52,1.04.35,2.1.52,3.18.52,1.78,0,3.48-.27,5.11-.81,1.63-.54,3.04-1.33,4.25-2.37,1.21-1.04,2.17-2.29,2.89-3.77.71-1.48,1.07-3.16,1.07-5.03v-6.07h-.15Z" style="fill:#00154c;"/><path d="M285.07,230.79v6.59h.15c.89-2.32,2.47-4.18,4.74-5.59,2.27-1.41,4.76-2.11,7.47-2.11s4.9.35,6.7,1.04c1.8.69,3.24,1.67,4.33,2.92,1.08,1.26,1.85,2.8,2.29,4.62.44,1.83.67,3.87.67,6.14v24.57h-4.66v-23.83c0-1.63-.15-3.14-.44-4.55s-.81-2.63-1.55-3.66-1.74-1.85-3-2.44c-1.26-.59-2.82-.89-4.7-.89s-3.54.33-4.99,1c-1.46.67-2.69,1.58-3.7,2.74-1.01,1.16-1.8,2.54-2.37,4.14-.57,1.6-.88,3.34-.92,5.22v22.27h-4.66v-38.18h4.66Z" style="fill:#00154c;"/><path d="M328.13,216.14v7.47h-4.66v-7.47h4.66ZM328.13,230.79v38.18h-4.66v-38.18h4.66Z" style="fill:#00154c;"/><path d="M368.83,265.05v3.92h-31.89v-3.77l24.94-30.49h-23.24v-3.92h29.16v3.33l-25.23,30.93h26.27Z" style="fill:#00154c;"/><path d="M378.67,236.71c.79-1.63,1.86-2.96,3.22-4,1.36-1.04,2.95-1.8,4.77-2.29,1.83-.49,3.85-.74,6.07-.74,1.68,0,3.35.16,5.03.48,1.68.32,3.18.92,4.51,1.81,1.33.89,2.42,2.13,3.26,3.74.84,1.6,1.26,3.69,1.26,6.25v20.28c0,1.88.91,2.81,2.74,2.81.54,0,1.04-.1,1.48-.3v3.92c-.54.1-1.02.17-1.44.22-.42.05-.95.07-1.59.07-1.18,0-2.13-.16-2.85-.48-.72-.32-1.27-.78-1.67-1.37-.4-.59-.66-1.29-.78-2.11-.12-.81-.18-1.71-.18-2.7h-.15c-.84,1.23-1.69,2.33-2.55,3.29-.86.96-1.83,1.76-2.89,2.41-1.06.64-2.27,1.13-3.63,1.48-1.36.34-2.97.52-4.85.52-1.78,0-3.44-.21-5-.63s-2.91-1.08-4.07-2c-1.16-.91-2.07-2.07-2.74-3.48-.67-1.41-1-3.07-1-5,0-2.66.59-4.75,1.78-6.25,1.18-1.5,2.75-2.65,4.7-3.44,1.95-.79,4.14-1.34,6.59-1.67,2.44-.32,4.92-.63,7.44-.92.99-.1,1.85-.22,2.59-.37s1.36-.41,1.85-.78.88-.88,1.15-1.52c.27-.64.41-1.48.41-2.52,0-1.58-.26-2.87-.78-3.89-.52-1.01-1.23-1.81-2.15-2.4-.91-.59-1.97-1-3.18-1.22-1.21-.22-2.5-.33-3.88-.33-2.96,0-5.38.7-7.25,2.11-1.88,1.41-2.86,3.66-2.96,6.77h-4.66c.15-2.22.62-4.14,1.41-5.77ZM401.98,248.1c-.3.54-.86.94-1.7,1.18-.84.25-1.58.42-2.22.52-1.97.35-4.01.65-6.11.92-2.1.27-4.01.68-5.73,1.22-1.73.54-3.15,1.32-4.25,2.33-1.11,1.01-1.67,2.45-1.67,4.33,0,1.18.23,2.23.7,3.14.47.91,1.1,1.7,1.89,2.37.79.67,1.7,1.17,2.74,1.52,1.04.35,2.1.52,3.18.52,1.78,0,3.48-.27,5.11-.81,1.63-.54,3.04-1.33,4.25-2.37,1.21-1.04,2.17-2.29,2.89-3.77.71-1.48,1.07-3.16,1.07-5.03v-6.07h-.15Z" style="fill:#00154c;"/><path d="M442.68,236.04c-1.73-1.63-4.14-2.44-7.25-2.44-2.22,0-4.17.47-5.85,1.41-1.68.94-3.07,2.17-4.18,3.7-1.11,1.53-1.95,3.27-2.52,5.22-.57,1.95-.85,3.93-.85,5.96s.28,4.01.85,5.96c.57,1.95,1.41,3.69,2.52,5.22,1.11,1.53,2.5,2.76,4.18,3.7,1.68.94,3.63,1.41,5.85,1.41,1.43,0,2.79-.27,4.07-.81,1.28-.54,2.42-1.29,3.4-2.26.99-.96,1.8-2.11,2.44-3.44.64-1.33,1.04-2.79,1.18-4.37h4.66c-.64,4.64-2.34,8.25-5.11,10.84s-6.32,3.88-10.66,3.88c-2.91,0-5.49-.53-7.73-1.59-2.25-1.06-4.13-2.5-5.66-4.33-1.53-1.82-2.69-3.96-3.48-6.4-.79-2.44-1.18-5.04-1.18-7.81s.39-5.37,1.18-7.81c.79-2.44,1.95-4.58,3.48-6.4,1.53-1.82,3.42-3.28,5.66-4.37,2.24-1.08,4.82-1.63,7.73-1.63,4.09,0,7.56,1.09,10.4,3.26,2.84,2.17,4.53,5.45,5.07,9.84h-4.66c-.64-2.86-1.83-5.11-3.55-6.73Z" style="fill:#00154c;"/><path d="M465.62,216.14v7.47h-4.66v-7.47h4.66ZM465.62,230.79v38.18h-4.66v-38.18h4.66Z" style="fill:#00154c;"/><path d="M501.62,231.31c2.24,1.09,4.13,2.54,5.66,4.37,1.53,1.83,2.69,3.96,3.48,6.4.79,2.44,1.18,5.04,1.18,7.81s-.4,5.37-1.18,7.81c-.79,2.44-1.95,4.58-3.48,6.4-1.53,1.83-3.42,3.27-5.66,4.33-2.25,1.06-4.82,1.59-7.73,1.59s-5.49-.53-7.73-1.59c-2.25-1.06-4.13-2.5-5.66-4.33-1.53-1.82-2.69-3.96-3.48-6.4-.79-2.44-1.18-5.04-1.18-7.81s.39-5.37,1.18-7.81c.79-2.44,1.95-4.58,3.48-6.4,1.53-1.82,3.42-3.28,5.66-4.37,2.24-1.08,4.82-1.63,7.73-1.63s5.49.54,7.73,1.63ZM488.05,235.01c-1.68.94-3.07,2.17-4.18,3.7-1.11,1.53-1.95,3.27-2.52,5.22-.57,1.95-.85,3.93-.85,5.96s.28,4.01.85,5.96c.57,1.95,1.41,3.69,2.52,5.22,1.11,1.53,2.5,2.76,4.18,3.7,1.68.94,3.63,1.41,5.85,1.41s4.17-.47,5.85-1.41c1.68-.94,3.07-2.17,4.18-3.7,1.11-1.53,1.95-3.27,2.52-5.22.57-1.95.85-3.93.85-5.96s-.28-4.01-.85-5.96c-.57-1.95-1.41-3.69-2.52-5.22-1.11-1.53-2.5-2.76-4.18-3.7-1.68-.94-3.63-1.41-5.85-1.41s-4.17.47-5.85,1.41ZM489.53,225.46l7.77-10.43h5.77l-9.77,10.43h-3.77Z" style="fill:#00154c;"/><path d="M526.67,230.79v6.59h.15c.89-2.32,2.47-4.18,4.74-5.59,2.27-1.41,4.76-2.11,7.47-2.11s4.9.35,6.7,1.04c1.8.69,3.24,1.67,4.33,2.92,1.08,1.26,1.85,2.8,2.29,4.62.44,1.83.67,3.87.67,6.14v24.57h-4.66v-23.83c0-1.63-.15-3.14-.44-4.55s-.81-2.63-1.55-3.66-1.74-1.85-3-2.44c-1.26-.59-2.82-.89-4.7-.89s-3.54.33-4.99,1c-1.46.67-2.69,1.58-3.7,2.74-1.01,1.16-1.8,2.54-2.37,4.14-.57,1.6-.88,3.34-.92,5.22v22.27h-4.66v-38.18h4.66Z" style="fill:#00154c;"/><path d="M115.98,312.14v22.94h31.38v-22.94h5.03v52.84h-5.03v-25.6h-31.38v25.6h-5.03v-52.84h5.03Z" style="fill:#00154c;"/><path d="M170.07,312.14v7.47h-4.66v-7.47h4.66ZM170.07,326.79v38.18h-4.66v-38.18h4.66Z" style="fill:#00154c;"/><path d="M211.51,364.97v-7.25h-.15c-.49,1.23-1.22,2.37-2.18,3.4s-2.06,1.91-3.29,2.63c-1.23.72-2.55,1.27-3.96,1.67-1.41.39-2.8.59-4.18.59-2.91,0-5.44-.53-7.59-1.59-2.15-1.06-3.93-2.52-5.36-4.37-1.43-1.85-2.49-4-3.18-6.44-.69-2.44-1.04-5.02-1.04-7.73s.34-5.29,1.04-7.73c.69-2.44,1.75-4.59,3.18-6.44,1.43-1.85,3.22-3.32,5.36-4.4,2.15-1.08,4.67-1.63,7.59-1.63,1.43,0,2.82.17,4.18.52,1.36.35,2.63.88,3.81,1.59,1.18.72,2.23,1.59,3.15,2.63.91,1.04,1.62,2.25,2.11,3.63h.15v-21.9h4.66v52.84h-4.29ZM185.94,351.76c.47,1.95,1.21,3.69,2.22,5.22,1.01,1.53,2.3,2.78,3.88,3.74,1.58.96,3.48,1.44,5.7,1.44,2.47,0,4.55-.48,6.25-1.44,1.7-.96,3.08-2.21,4.14-3.74,1.06-1.53,1.82-3.27,2.29-5.22.47-1.95.7-3.91.7-5.88s-.23-3.93-.7-5.88c-.47-1.95-1.23-3.69-2.29-5.22-1.06-1.53-2.44-2.77-4.14-3.74-1.7-.96-3.79-1.44-6.25-1.44-2.22,0-4.12.48-5.7,1.44-1.58.96-2.88,2.21-3.88,3.74-1.01,1.53-1.75,3.27-2.22,5.22-.47,1.95-.7,3.91-.7,5.88s.23,3.93.7,5.88Z" style="fill:#00154c;"/><path d="M232.16,326.79v8.95h.15c1.18-3.11,3.02-5.5,5.51-7.18,2.49-1.68,5.46-2.44,8.92-2.29v4.66c-2.12-.1-4.04.18-5.77.85-1.73.67-3.22,1.62-4.48,2.85-1.26,1.23-2.23,2.7-2.92,4.4-.69,1.7-1.04,3.56-1.04,5.59v20.35h-4.66v-38.18h4.29Z" style="fill:#00154c;"/><path d="M276.89,327.31c2.24,1.09,4.13,2.54,5.66,4.37,1.53,1.83,2.69,3.96,3.48,6.4.79,2.44,1.18,5.04,1.18,7.81s-.4,5.37-1.18,7.81c-.79,2.44-1.95,4.58-3.48,6.4-1.53,1.83-3.42,3.27-5.66,4.33-2.25,1.06-4.82,1.59-7.73,1.59s-5.49-.53-7.73-1.59c-2.25-1.06-4.13-2.5-5.66-4.33s-2.69-3.96-3.48-6.4c-.79-2.44-1.18-5.04-1.18-7.81s.39-5.37,1.18-7.81c.79-2.44,1.95-4.58,3.48-6.4s3.42-3.28,5.66-4.37c2.24-1.08,4.82-1.63,7.73-1.63s5.49.54,7.73,1.63ZM263.31,331.01c-1.68.94-3.07,2.17-4.18,3.7s-1.95,3.27-2.52,5.22c-.57,1.95-.85,3.93-.85,5.96s.28,4.01.85,5.96c.57,1.95,1.41,3.69,2.52,5.22,1.11,1.53,2.5,2.76,4.18,3.7,1.68.94,3.63,1.41,5.85,1.41s4.17-.47,5.85-1.41c1.68-.94,3.07-2.17,4.18-3.7,1.11-1.53,1.95-3.27,2.52-5.22.57-1.95.85-3.93.85-5.96s-.28-4.01-.85-5.96c-.57-1.95-1.41-3.69-2.52-5.22-1.11-1.53-2.5-2.76-4.18-3.7-1.68-.94-3.63-1.41-5.85-1.41s-4.17.47-5.85,1.41Z" style="fill:#00154c;"/><path d="M328.69,369.49c-.62,2.27-1.59,4.19-2.92,5.77-1.33,1.58-3.07,2.79-5.22,3.63-2.15.84-4.77,1.26-7.88,1.26-1.92,0-3.8-.22-5.62-.67s-3.47-1.14-4.92-2.07c-1.46-.94-2.66-2.13-3.63-3.59s-1.52-3.19-1.67-5.22h4.66c.25,1.43.73,2.63,1.44,3.59.71.96,1.58,1.74,2.59,2.33,1.01.59,2.13,1.02,3.37,1.29,1.23.27,2.49.41,3.77.41,4.34,0,7.47-1.23,9.4-3.7,1.92-2.47,2.89-6.02,2.89-10.66v-5.18h-.15c-1.08,2.37-2.68,4.27-4.77,5.7-2.1,1.43-4.55,2.15-7.36,2.15-3.06,0-5.67-.5-7.84-1.52-2.17-1.01-3.96-2.41-5.37-4.18-1.41-1.78-2.43-3.86-3.07-6.25-.64-2.39-.96-4.95-.96-7.66s.38-5.09,1.15-7.44c.76-2.34,1.87-4.39,3.33-6.14,1.45-1.75,3.26-3.13,5.4-4.14,2.15-1.01,4.6-1.52,7.36-1.52,1.43,0,2.78.2,4.03.59,1.26.4,2.41.95,3.44,1.67,1.04.72,1.96,1.54,2.77,2.48.81.94,1.44,1.92,1.89,2.96h.15v-6.59h4.66v35.08c0,2.81-.31,5.35-.92,7.62ZM318,359.31c1.53-.86,2.81-2,3.85-3.4,1.04-1.41,1.81-3.02,2.33-4.85.52-1.82.78-3.7.78-5.62s-.22-3.75-.67-5.62c-.44-1.87-1.16-3.58-2.15-5.11-.99-1.53-2.26-2.76-3.81-3.7-1.55-.94-3.44-1.41-5.66-1.41s-4.12.46-5.7,1.37c-1.58.91-2.89,2.11-3.92,3.59-1.04,1.48-1.79,3.17-2.26,5.07-.47,1.9-.7,3.84-.7,5.81s.25,3.8.74,5.62c.49,1.83,1.26,3.44,2.29,4.85,1.04,1.41,2.34,2.54,3.92,3.4,1.58.86,3.45,1.29,5.62,1.29,2.02,0,3.8-.43,5.33-1.29Z" style="fill:#00154c;"/><path d="M345.97,326.79v8.95h.15c1.18-3.11,3.02-5.5,5.51-7.18,2.49-1.68,5.46-2.44,8.92-2.29v4.66c-2.12-.1-4.04.18-5.77.85-1.73.67-3.22,1.62-4.48,2.85-1.26,1.23-2.23,2.7-2.92,4.4-.69,1.7-1.04,3.56-1.04,5.59v20.35h-4.66v-38.18h4.29Z" style="fill:#00154c;"/><path d="M369.13,332.71c.79-1.63,1.86-2.96,3.22-4,1.36-1.04,2.95-1.8,4.77-2.29,1.83-.49,3.85-.74,6.07-.74,1.68,0,3.35.16,5.03.48,1.68.32,3.18.92,4.51,1.81,1.33.89,2.42,2.13,3.26,3.74.84,1.6,1.26,3.69,1.26,6.25v20.28c0,1.88.91,2.81,2.74,2.81.54,0,1.04-.1,1.48-.3v3.92c-.54.1-1.02.17-1.44.22-.42.05-.95.07-1.59.07-1.18,0-2.13-.16-2.85-.48-.72-.32-1.27-.78-1.67-1.37-.4-.59-.66-1.29-.78-2.11-.12-.81-.18-1.71-.18-2.7h-.15c-.84,1.23-1.69,2.33-2.55,3.29-.86.96-1.83,1.76-2.89,2.41-1.06.64-2.27,1.13-3.63,1.48-1.36.34-2.97.52-4.85.52-1.78,0-3.44-.21-5-.63-1.55-.42-2.91-1.08-4.07-2-1.16-.91-2.07-2.07-2.74-3.48-.67-1.41-1-3.07-1-5,0-2.66.59-4.75,1.78-6.25,1.18-1.5,2.75-2.65,4.7-3.44,1.95-.79,4.14-1.34,6.59-1.67,2.44-.32,4.92-.63,7.44-.92.99-.1,1.85-.22,2.59-.37.74-.15,1.36-.41,1.85-.78s.88-.88,1.15-1.52c.27-.64.41-1.48.41-2.52,0-1.58-.26-2.87-.78-3.88-.52-1.01-1.23-1.81-2.15-2.41-.91-.59-1.97-1-3.18-1.22-1.21-.22-2.5-.33-3.88-.33-2.96,0-5.38.7-7.25,2.11-1.88,1.41-2.86,3.66-2.96,6.77h-4.66c.15-2.22.62-4.14,1.41-5.77ZM392.44,344.1c-.3.54-.86.94-1.7,1.18s-1.58.42-2.22.52c-1.97.35-4.01.65-6.11.92-2.1.27-4.01.68-5.73,1.22-1.73.54-3.15,1.32-4.25,2.33-1.11,1.01-1.67,2.46-1.67,4.33,0,1.18.23,2.23.7,3.15.47.91,1.1,1.7,1.89,2.37.79.67,1.7,1.17,2.74,1.52,1.04.35,2.1.52,3.18.52,1.78,0,3.48-.27,5.11-.81,1.63-.54,3.04-1.33,4.25-2.37,1.21-1.04,2.17-2.29,2.89-3.77.71-1.48,1.07-3.16,1.07-5.03v-6.07h-.15ZM378.53,321.46l7.77-10.43h5.77l-9.77,10.43h-3.77Z" style="fill:#00154c;"/><path d="M416.93,330.71v34.26h-4.66v-34.26h-6.51v-3.92h6.51v-3.48c0-1.63.12-3.13.37-4.51.25-1.38.71-2.56,1.41-3.55.69-.99,1.64-1.75,2.85-2.29,1.21-.54,2.75-.81,4.62-.81.69,0,1.33.03,1.92.07.59.05,1.26.12,2,.22v4c-.64-.1-1.23-.18-1.78-.26s-1.08-.11-1.63-.11c-1.28,0-2.27.2-2.96.59-.69.39-1.2.92-1.52,1.59-.32.67-.51,1.44-.55,2.33-.05.89-.07,1.85-.07,2.89v3.33h7.55v3.92h-7.55Z" style="fill:#00154c;"/><path d="M436.84,312.14v7.47h-4.66v-7.47h4.66ZM436.84,326.79v38.18h-4.66v-38.18h4.66Z" style="fill:#00154c;"/><path d="M472.36,332.04c-1.73-1.63-4.14-2.44-7.25-2.44-2.22,0-4.17.47-5.85,1.41-1.68.94-3.07,2.17-4.18,3.7s-1.95,3.27-2.52,5.22c-.57,1.95-.85,3.93-.85,5.96s.28,4.01.85,5.96c.57,1.95,1.41,3.69,2.52,5.22,1.11,1.53,2.5,2.76,4.18,3.7,1.68.94,3.63,1.41,5.85,1.41,1.43,0,2.79-.27,4.07-.81,1.28-.54,2.42-1.29,3.4-2.26.99-.96,1.8-2.11,2.44-3.44.64-1.33,1.04-2.79,1.18-4.37h4.66c-.64,4.64-2.34,8.25-5.11,10.84-2.76,2.59-6.32,3.88-10.66,3.88-2.91,0-5.49-.53-7.73-1.59-2.25-1.06-4.13-2.5-5.66-4.33s-2.69-3.96-3.48-6.4c-.79-2.44-1.18-5.04-1.18-7.81s.39-5.37,1.18-7.81c.79-2.44,1.95-4.58,3.48-6.4s3.42-3.28,5.66-4.37c2.24-1.08,4.82-1.63,7.73-1.63,4.09,0,7.56,1.09,10.4,3.26,2.84,2.17,4.53,5.45,5.07,9.84h-4.66c-.64-2.86-1.83-5.11-3.55-6.73Z" style="fill:#00154c;"/><path d="M491.52,332.71c.79-1.63,1.86-2.96,3.22-4,1.36-1.04,2.95-1.8,4.77-2.29,1.83-.49,3.85-.74,6.07-.74,1.68,0,3.35.16,5.03.48,1.68.32,3.18.92,4.51,1.81,1.33.89,2.42,2.13,3.26,3.74.84,1.6,1.26,3.69,1.26,6.25v20.28c0,1.88.91,2.81,2.74,2.81.54,0,1.04-.1,1.48-.3v3.92c-.54.1-1.02.17-1.44.22-.42.05-.95.07-1.59.07-1.18,0-2.13-.16-2.85-.48-.72-.32-1.27-.78-1.67-1.37-.4-.59-.66-1.29-.78-2.11-.12-.81-.18-1.71-.18-2.7h-.15c-.84,1.23-1.69,2.33-2.55,3.29-.86.96-1.83,1.76-2.89,2.41-1.06.64-2.27,1.13-3.63,1.48-1.36.34-2.97.52-4.85.52-1.78,0-3.44-.21-5-.63-1.55-.42-2.91-1.08-4.07-2-1.16-.91-2.07-2.07-2.74-3.48-.67-1.41-1-3.07-1-5,0-2.66.59-4.75,1.78-6.25,1.18-1.5,2.75-2.65,4.7-3.44,1.95-.79,4.14-1.34,6.59-1.67,2.44-.32,4.92-.63,7.44-.92.99-.1,1.85-.22,2.59-.37.74-.15,1.36-.41,1.85-.78s.88-.88,1.15-1.52c.27-.64.41-1.48.41-2.52,0-1.58-.26-2.87-.78-3.88-.52-1.01-1.23-1.81-2.15-2.41-.91-.59-1.97-1-3.18-1.22-1.21-.22-2.5-.33-3.88-.33-2.96,0-5.38.7-7.25,2.11-1.88,1.41-2.86,3.66-2.96,6.77h-4.66c.15-2.22.62-4.14,1.41-5.77ZM514.83,344.1c-.3.54-.86.94-1.7,1.18s-1.58.42-2.22.52c-1.97.35-4.01.65-6.11.92-2.1.27-4.01.68-5.73,1.22-1.73.54-3.15,1.32-4.25,2.33-1.11,1.01-1.67,2.46-1.67,4.33,0,1.18.23,2.23.7,3.15.47.91,1.1,1.7,1.89,2.37.79.67,1.7,1.17,2.74,1.52,1.04.35,2.1.52,3.18.52,1.78,0,3.48-.27,5.11-.81,1.63-.54,3.04-1.33,4.25-2.37,1.21-1.04,2.17-2.29,2.89-3.77.71-1.48,1.07-3.16,1.07-5.03v-6.07h-.15Z" style="fill:#00154c;"/><path d="M116.35,408.14v52.84h-5.03v-52.84h5.03Z" style="fill:#00154c;"/><path d="M134.25,422.79v6.59h.15c.89-2.32,2.47-4.18,4.74-5.59,2.27-1.41,4.76-2.11,7.47-2.11s4.9.35,6.7,1.04c1.8.69,3.24,1.67,4.33,2.92,1.08,1.26,1.85,2.8,2.29,4.62.44,1.83.67,3.87.67,6.14v24.57h-4.66v-23.83c0-1.63-.15-3.14-.44-4.55s-.81-2.63-1.55-3.66-1.74-1.85-3-2.44c-1.26-.59-2.82-.89-4.7-.89s-3.54.33-4.99,1c-1.46.67-2.69,1.58-3.7,2.74-1.01,1.16-1.8,2.54-2.37,4.14-.57,1.6-.88,3.34-.92,5.22v22.27h-4.66v-38.18h4.66Z" style="fill:#00154c;"/><path d="M187.76,422.79v3.92h-7.77v25.75c0,1.53.21,2.73.63,3.59.42.86,1.47,1.34,3.15,1.44,1.33,0,2.66-.07,4-.22v3.92c-.69,0-1.38.02-2.07.07-.69.05-1.38.07-2.07.07-3.11,0-5.28-.6-6.51-1.81-1.23-1.21-1.83-3.44-1.78-6.7v-26.12h-6.66v-3.92h6.66v-11.47h4.66v11.47h7.77Z" style="fill:#00154c;"/><path d="M201.11,448.36c.47,1.8,1.22,3.42,2.26,4.85s2.34,2.62,3.92,3.55c1.58.94,3.48,1.41,5.7,1.41,3.4,0,6.07-.89,7.99-2.66,1.92-1.78,3.26-4.14,4-7.1h4.66c-.99,4.34-2.8,7.7-5.44,10.06-2.64,2.37-6.38,3.55-11.21,3.55-3.01,0-5.61-.53-7.81-1.59-2.2-1.06-3.98-2.52-5.37-4.37-1.38-1.85-2.41-4-3.07-6.44-.67-2.44-1-5.02-1-7.73,0-2.52.33-4.98,1-7.4.67-2.42,1.69-4.58,3.07-6.47,1.38-1.9,3.17-3.43,5.37-4.59,2.19-1.16,4.8-1.74,7.81-1.74s5.67.62,7.84,1.85c2.17,1.23,3.93,2.85,5.29,4.85,1.36,2,2.33,4.29,2.92,6.88.59,2.59.84,5.22.74,7.88h-29.38c0,1.68.23,3.42.7,5.22ZM224.2,434.11c-.57-1.63-1.37-3.07-2.4-4.33-1.04-1.26-2.29-2.27-3.77-3.03-1.48-.76-3.16-1.15-5.03-1.15s-3.63.38-5.11,1.15c-1.48.76-2.74,1.78-3.77,3.03-1.04,1.26-1.86,2.71-2.48,4.37-.62,1.65-1.02,3.34-1.22,5.07h24.72c-.05-1.78-.36-3.48-.92-5.11Z" style="fill:#00154c;"/><path d="M243.55,422.79v8.95h.15c1.18-3.11,3.02-5.5,5.51-7.18,2.49-1.68,5.46-2.44,8.92-2.29v4.66c-2.12-.1-4.04.18-5.77.85-1.73.67-3.22,1.62-4.48,2.85-1.26,1.23-2.23,2.7-2.92,4.4-.69,1.7-1.04,3.56-1.04,5.59v20.35h-4.66v-38.18h4.29Z" style="fill:#00154c;"/><path d="M271.67,422.79v6.59h.15c.89-2.32,2.47-4.18,4.74-5.59,2.27-1.41,4.76-2.11,7.47-2.11s4.9.35,6.7,1.04c1.8.69,3.24,1.67,4.33,2.92,1.08,1.26,1.85,2.8,2.29,4.62.44,1.83.67,3.87.67,6.14v24.57h-4.66v-23.83c0-1.63-.15-3.14-.44-4.55s-.81-2.63-1.55-3.66-1.74-1.85-3-2.44c-1.26-.59-2.82-.89-4.7-.89s-3.54.33-4.99,1c-1.46.67-2.69,1.58-3.7,2.74-1.01,1.16-1.8,2.54-2.37,4.14-.57,1.6-.88,3.34-.92,5.22v22.27h-4.66v-38.18h4.66Z" style="fill:#00154c;"/><path d="M310.96,428.71c.79-1.63,1.86-2.96,3.22-4,1.36-1.04,2.95-1.8,4.77-2.29s3.85-.74,6.07-.74c1.68,0,3.35.16,5.03.48,1.68.32,3.18.93,4.51,1.81s2.42,2.13,3.26,3.74c.84,1.6,1.26,3.69,1.26,6.25v20.28c0,1.88.91,2.81,2.74,2.81.54,0,1.04-.1,1.48-.3v3.92c-.54.1-1.02.17-1.44.22-.42.05-.95.07-1.59.07-1.18,0-2.13-.16-2.85-.48-.72-.32-1.27-.78-1.67-1.37-.4-.59-.66-1.29-.78-2.11-.12-.81-.18-1.71-.18-2.7h-.15c-.84,1.23-1.69,2.33-2.55,3.29-.86.96-1.83,1.76-2.89,2.41-1.06.64-2.27,1.13-3.63,1.48-1.36.34-2.97.52-4.85.52-1.78,0-3.44-.21-5-.63-1.55-.42-2.91-1.08-4.07-2-1.16-.91-2.07-2.07-2.74-3.48-.67-1.41-1-3.07-1-5,0-2.66.59-4.75,1.78-6.25,1.18-1.5,2.75-2.65,4.7-3.44,1.95-.79,4.14-1.34,6.59-1.67,2.44-.32,4.92-.63,7.44-.92.99-.1,1.85-.22,2.59-.37.74-.15,1.36-.41,1.85-.78s.88-.88,1.15-1.52c.27-.64.41-1.48.41-2.52,0-1.58-.26-2.87-.78-3.88-.52-1.01-1.23-1.81-2.15-2.41-.91-.59-1.97-1-3.18-1.22-1.21-.22-2.5-.33-3.88-.33-2.96,0-5.38.7-7.25,2.11-1.88,1.41-2.86,3.66-2.96,6.77h-4.66c.15-2.22.62-4.14,1.41-5.77ZM334.27,440.1c-.3.54-.86.94-1.7,1.18s-1.58.42-2.22.52c-1.97.35-4.01.65-6.11.92-2.1.27-4.01.68-5.73,1.22-1.73.54-3.15,1.32-4.25,2.33-1.11,1.01-1.67,2.46-1.67,4.33,0,1.18.23,2.23.7,3.15.47.91,1.1,1.7,1.89,2.37.79.67,1.7,1.17,2.74,1.52,1.04.35,2.1.52,3.18.52,1.78,0,3.48-.27,5.11-.81,1.63-.54,3.04-1.33,4.25-2.37,1.21-1.04,2.17-2.29,2.89-3.77.71-1.48,1.07-3.16,1.07-5.03v-6.07h-.15Z" style="fill:#00154c;"/><path d="M374.97,428.04c-1.73-1.63-4.14-2.44-7.25-2.44-2.22,0-4.17.47-5.85,1.41-1.68.94-3.07,2.17-4.18,3.7s-1.95,3.27-2.52,5.22c-.57,1.95-.85,3.93-.85,5.96s.28,4.01.85,5.96c.57,1.95,1.41,3.69,2.52,5.22,1.11,1.53,2.5,2.76,4.18,3.7,1.68.94,3.63,1.41,5.85,1.41,1.43,0,2.79-.27,4.07-.81,1.28-.54,2.42-1.29,3.4-2.26.99-.96,1.8-2.11,2.44-3.44.64-1.33,1.04-2.79,1.18-4.37h4.66c-.64,4.64-2.34,8.25-5.11,10.84-2.76,2.59-6.32,3.88-10.66,3.88-2.91,0-5.49-.53-7.73-1.59-2.25-1.06-4.13-2.5-5.66-4.33s-2.69-3.96-3.48-6.4c-.79-2.44-1.18-5.04-1.18-7.81s.39-5.37,1.18-7.81c.79-2.44,1.95-4.58,3.48-6.4s3.42-3.28,5.66-4.37c2.24-1.08,4.82-1.63,7.73-1.63,4.09,0,7.56,1.09,10.4,3.26,2.84,2.17,4.53,5.45,5.07,9.84h-4.66c-.64-2.86-1.83-5.11-3.55-6.73Z" style="fill:#00154c;"/><path d="M397.91,408.14v7.47h-4.66v-7.47h4.66ZM397.91,422.79v38.18h-4.66v-38.18h4.66Z" style="fill:#00154c;"/><path d="M433.91,423.31c2.24,1.09,4.13,2.54,5.66,4.37,1.53,1.83,2.69,3.96,3.48,6.4.79,2.44,1.18,5.04,1.18,7.81s-.4,5.37-1.18,7.81c-.79,2.44-1.95,4.58-3.48,6.4-1.53,1.83-3.42,3.27-5.66,4.33-2.25,1.06-4.82,1.59-7.73,1.59s-5.49-.53-7.73-1.59c-2.25-1.06-4.13-2.5-5.66-4.33s-2.69-3.96-3.48-6.4c-.79-2.44-1.18-5.04-1.18-7.81s.39-5.37,1.18-7.81c.79-2.44,1.95-4.58,3.48-6.4s3.42-3.28,5.66-4.37c2.24-1.08,4.82-1.63,7.73-1.63s5.49.54,7.73,1.63ZM420.33,427.01c-1.68.94-3.07,2.17-4.18,3.7s-1.95,3.27-2.52,5.22c-.57,1.95-.85,3.93-.85,5.96s.28,4.01.85,5.96c.57,1.95,1.41,3.69,2.52,5.22,1.11,1.53,2.5,2.76,4.18,3.7,1.68.94,3.63,1.41,5.85,1.41s4.17-.47,5.85-1.41c1.68-.94,3.07-2.17,4.18-3.7,1.11-1.53,1.95-3.27,2.52-5.22.57-1.95.85-3.93.85-5.96s-.28-4.01-.85-5.96c-.57-1.95-1.41-3.69-2.52-5.22-1.11-1.53-2.5-2.76-4.18-3.7-1.68-.94-3.63-1.41-5.85-1.41s-4.17.47-5.85,1.41Z" style="fill:#00154c;"/><path d="M458.96,422.79v6.59h.15c.89-2.32,2.47-4.18,4.74-5.59,2.27-1.41,4.76-2.11,7.47-2.11s4.9.35,6.7,1.04c1.8.69,3.24,1.67,4.33,2.92,1.08,1.26,1.85,2.8,2.29,4.62.44,1.83.67,3.87.67,6.14v24.57h-4.66v-23.83c0-1.63-.15-3.14-.44-4.55s-.81-2.63-1.55-3.66-1.74-1.85-3-2.44c-1.26-.59-2.82-.89-4.7-.89s-3.54.33-4.99,1c-1.46.67-2.69,1.58-3.7,2.74-1.01,1.16-1.8,2.54-2.37,4.14-.57,1.6-.88,3.34-.92,5.22v22.27h-4.66v-38.18h4.66Z" style="fill:#00154c;"/><path d="M498.25,428.71c.79-1.63,1.86-2.96,3.22-4,1.36-1.04,2.95-1.8,4.77-2.29s3.85-.74,6.07-.74c1.68,0,3.35.16,5.03.48,1.68.32,3.18.93,4.51,1.81s2.42,2.13,3.26,3.74c.84,1.6,1.26,3.69,1.26,6.25v20.28c0,1.88.91,2.81,2.74,2.81.54,0,1.04-.1,1.48-.3v3.92c-.54.1-1.02.17-1.44.22-.42.05-.95.07-1.59.07-1.18,0-2.13-.16-2.85-.48-.72-.32-1.27-.78-1.67-1.37-.4-.59-.66-1.29-.78-2.11-.12-.81-.18-1.71-.18-2.7h-.15c-.84,1.23-1.69,2.33-2.55,3.29-.86.96-1.83,1.76-2.89,2.41-1.06.64-2.27,1.13-3.63,1.48-1.36.34-2.97.52-4.85.52-1.78,0-3.44-.21-5-.63-1.55-.42-2.91-1.08-4.07-2-1.16-.91-2.07-2.07-2.74-3.48-.67-1.41-1-3.07-1-5,0-2.66.59-4.75,1.78-6.25,1.18-1.5,2.75-2.65,4.7-3.44,1.95-.79,4.14-1.34,6.59-1.67,2.44-.32,4.92-.63,7.44-.92.99-.1,1.85-.22,2.59-.37.74-.15,1.36-.41,1.85-.78s.88-.88,1.15-1.52c.27-.64.41-1.48.41-2.52,0-1.58-.26-2.87-.78-3.88-.52-1.01-1.23-1.81-2.15-2.41-.91-.59-1.97-1-3.18-1.22-1.21-.22-2.5-.33-3.88-.33-2.96,0-5.38.7-7.25,2.11-1.88,1.41-2.86,3.66-2.96,6.77h-4.66c.15-2.22.62-4.14,1.41-5.77ZM521.56,440.1c-.3.54-.86.94-1.7,1.18s-1.58.42-2.22.52c-1.97.35-4.01.65-6.11.92-2.1.27-4.01.68-5.73,1.22-1.73.54-3.15,1.32-4.25,2.33-1.11,1.01-1.67,2.46-1.67,4.33,0,1.18.23,2.23.7,3.15.47.91,1.1,1.7,1.89,2.37.79.67,1.7,1.17,2.74,1.52,1.04.35,2.1.52,3.18.52,1.78,0,3.48-.27,5.11-.81,1.63-.54,3.04-1.33,4.25-2.37,1.21-1.04,2.17-2.29,2.89-3.77.71-1.48,1.07-3.16,1.07-5.03v-6.07h-.15Z" style="fill:#00154c;"/><path d="M543.62,408.14v52.84h-4.66v-52.84h4.66Z" style="fill:#00154c;"/></svg>