<?xml version="1.0" encoding="UTF-8"?><svg id="uuid-f2eecaa4-7d5e-454f-aac7-8245ef180cc6" xmlns="http://www.w3.org/2000/svg" width="235.3mm" height="235.3mm" viewBox="0 0 667 667"><rect width="667" height="667" style="fill:#f0ebd8;"/><path d="M72.4,235.12c1.04-3.3,2.59-6.23,4.66-8.77,2.07-2.54,4.67-4.56,7.81-6.07,3.13-1.5,6.77-2.26,10.92-2.26s7.77.75,10.88,2.26c3.11,1.51,5.7,3.53,7.77,6.07,2.07,2.54,3.63,5.46,4.66,8.77,1.04,3.31,1.55,6.78,1.55,10.43s-.52,7.13-1.55,10.43c-1.04,3.31-2.59,6.22-4.66,8.73-2.07,2.52-4.66,4.53-7.77,6.03-3.11,1.5-6.73,2.26-10.88,2.26s-7.78-.75-10.92-2.26c-3.13-1.5-5.74-3.51-7.81-6.03-2.07-2.52-3.63-5.43-4.66-8.73-1.04-3.3-1.55-6.78-1.55-10.43s.52-7.13,1.55-10.43ZM77.03,254.03c.76,2.79,1.95,5.28,3.55,7.47,1.6,2.2,3.66,3.96,6.18,5.29,2.52,1.33,5.52,2,9.03,2s6.5-.67,8.99-2c2.49-1.33,4.54-3.09,6.14-5.29,1.6-2.19,2.79-4.69,3.55-7.47.76-2.79,1.15-5.61,1.15-8.47s-.38-5.75-1.15-8.51c-.76-2.76-1.95-5.24-3.55-7.44-1.6-2.19-3.65-3.96-6.14-5.29-2.49-1.33-5.49-2-8.99-2s-6.51.67-9.03,2c-2.52,1.33-4.58,3.1-6.18,5.29-1.6,2.2-2.79,4.67-3.55,7.44-.77,2.76-1.15,5.6-1.15,8.51s.38,5.69,1.15,8.47Z" style="fill:#00154c;"/><path d="M135.08,233.79v8.95h.15c1.18-3.11,3.02-5.5,5.51-7.18,2.49-1.68,5.46-2.44,8.92-2.29v4.66c-2.12-.1-4.04.18-5.77.85-1.73.67-3.22,1.62-4.48,2.85-1.26,1.23-2.23,2.7-2.92,4.4-.69,1.7-1.04,3.57-1.04,5.59v20.35h-4.66v-38.18h4.29Z" style="fill:#00154c;"/><path d="M188.62,276.49c-.62,2.27-1.59,4.19-2.92,5.77-1.33,1.58-3.07,2.79-5.22,3.63-2.15.84-4.77,1.26-7.88,1.26-1.92,0-3.8-.22-5.62-.67s-3.47-1.14-4.92-2.07c-1.46-.94-2.66-2.13-3.63-3.59-.96-1.46-1.52-3.19-1.67-5.22h4.66c.25,1.43.73,2.63,1.44,3.59.71.96,1.58,1.74,2.59,2.33,1.01.59,2.13,1.02,3.37,1.29,1.23.27,2.49.41,3.77.41,4.34,0,7.47-1.23,9.4-3.7,1.92-2.47,2.89-6.02,2.89-10.66v-5.18h-.15c-1.08,2.37-2.68,4.27-4.77,5.7-2.1,1.43-4.55,2.15-7.36,2.15-3.06,0-5.67-.5-7.84-1.52-2.17-1.01-3.96-2.41-5.37-4.18-1.41-1.78-2.43-3.86-3.07-6.25-.64-2.39-.96-4.95-.96-7.66s.38-5.09,1.15-7.44c.76-2.34,1.87-4.39,3.33-6.14,1.45-1.75,3.26-3.13,5.4-4.14,2.15-1.01,4.6-1.52,7.36-1.52,1.43,0,2.78.2,4.03.59,1.26.4,2.41.95,3.44,1.67,1.04.72,1.96,1.54,2.77,2.48.81.94,1.44,1.92,1.89,2.96h.15v-6.59h4.66v35.08c0,2.81-.31,5.35-.92,7.62ZM177.93,266.31c1.53-.86,2.81-2,3.85-3.4,1.04-1.41,1.81-3.02,2.33-4.85.52-1.82.78-3.7.78-5.62s-.22-3.75-.67-5.62c-.44-1.87-1.16-3.58-2.15-5.11-.99-1.53-2.26-2.76-3.81-3.7-1.55-.94-3.44-1.41-5.66-1.41s-4.12.46-5.7,1.37c-1.58.91-2.89,2.11-3.92,3.59-1.04,1.48-1.79,3.17-2.26,5.07-.47,1.9-.7,3.84-.7,5.81s.25,3.8.74,5.62c.49,1.83,1.26,3.44,2.29,4.85s2.34,2.54,3.92,3.4c1.58.86,3.45,1.29,5.62,1.29,2.02,0,3.8-.43,5.33-1.29Z" style="fill:#00154c;"/><path d="M202.57,239.71c.79-1.63,1.86-2.96,3.22-4,1.36-1.04,2.95-1.8,4.77-2.29,1.83-.49,3.85-.74,6.07-.74,1.68,0,3.35.16,5.03.48,1.68.32,3.18.92,4.51,1.81,1.33.89,2.42,2.13,3.26,3.74.84,1.6,1.26,3.69,1.26,6.25v20.28c0,1.88.91,2.81,2.74,2.81.54,0,1.04-.1,1.48-.3v3.92c-.54.1-1.02.17-1.44.22-.42.05-.95.07-1.59.07-1.18,0-2.13-.16-2.85-.48-.72-.32-1.27-.78-1.67-1.37-.4-.59-.66-1.29-.78-2.11-.12-.81-.18-1.71-.18-2.7h-.15c-.84,1.23-1.69,2.33-2.55,3.29-.86.96-1.83,1.76-2.89,2.41-1.06.64-2.27,1.13-3.63,1.48-1.36.34-2.97.52-4.85.52-1.78,0-3.44-.21-5-.63-1.55-.42-2.91-1.08-4.07-2-1.16-.91-2.07-2.07-2.74-3.48s-1-3.07-1-5c0-2.66.59-4.75,1.78-6.25,1.18-1.5,2.75-2.65,4.7-3.44,1.95-.79,4.14-1.34,6.59-1.67,2.44-.32,4.92-.63,7.44-.93.99-.1,1.85-.22,2.59-.37.74-.15,1.36-.41,1.85-.78s.88-.88,1.15-1.52c.27-.64.41-1.48.41-2.52,0-1.58-.26-2.87-.78-3.88-.52-1.01-1.23-1.81-2.15-2.41s-1.97-1-3.18-1.22c-1.21-.22-2.5-.33-3.88-.33-2.96,0-5.38.7-7.25,2.11-1.88,1.41-2.86,3.66-2.96,6.77h-4.66c.15-2.22.62-4.14,1.41-5.77ZM225.88,251.1c-.3.54-.86.94-1.7,1.18-.84.25-1.58.42-2.22.52-1.97.35-4.01.65-6.11.92-2.1.27-4.01.68-5.73,1.22-1.73.54-3.15,1.32-4.25,2.33-1.11,1.01-1.67,2.46-1.67,4.33,0,1.18.23,2.23.7,3.15.47.91,1.1,1.7,1.89,2.37.79.67,1.7,1.17,2.74,1.52,1.04.35,2.1.52,3.18.52,1.78,0,3.48-.27,5.11-.81,1.63-.54,3.04-1.33,4.25-2.37,1.21-1.04,2.17-2.29,2.89-3.77.71-1.48,1.07-3.16,1.07-5.03v-6.07h-.15Z" style="fill:#00154c;"/><path d="M247.78,233.79v6.59h.15c.89-2.32,2.47-4.18,4.74-5.59,2.27-1.41,4.76-2.11,7.47-2.11s4.9.35,6.7,1.04c1.8.69,3.24,1.67,4.33,2.92,1.08,1.26,1.85,2.8,2.29,4.62s.67,3.87.67,6.14v24.57h-4.66v-23.83c0-1.63-.15-3.15-.44-4.55-.3-1.41-.81-2.63-1.55-3.66s-1.74-1.85-3-2.44-2.82-.89-4.7-.89-3.54.33-4.99,1c-1.46.67-2.69,1.58-3.7,2.74-1.01,1.16-1.8,2.54-2.37,4.14-.57,1.6-.88,3.34-.92,5.22v22.27h-4.66v-38.18h4.66Z" style="fill:#00154c;"/><path d="M290.85,219.14v7.47h-4.66v-7.47h4.66ZM290.85,233.79v38.18h-4.66v-38.18h4.66Z" style="fill:#00154c;"/><path d="M324.96,241.23c-.54-1.06-1.27-1.94-2.18-2.63-.91-.69-1.96-1.2-3.15-1.52-1.18-.32-2.44-.48-3.77-.48-1.04,0-2.08.11-3.15.33-1.06.22-2.04.59-2.92,1.11-.89.52-1.6,1.2-2.15,2.04-.54.84-.81,1.88-.81,3.11,0,1.04.26,1.91.78,2.63.52.72,1.17,1.32,1.96,1.81.79.49,1.65.9,2.59,1.22.94.32,1.8.58,2.59.78l6.22,1.41c1.33.2,2.65.55,3.96,1.07,1.31.52,2.47,1.2,3.48,2.04,1.01.84,1.84,1.88,2.48,3.11.64,1.23.96,2.69.96,4.37,0,2.07-.47,3.84-1.41,5.29-.94,1.46-2.13,2.64-3.59,3.55-1.46.91-3.1,1.57-4.92,1.96-1.83.39-3.63.59-5.4.59-4.49,0-8.13-1.06-10.92-3.18-2.79-2.12-4.38-5.52-4.77-10.21h4.66c.2,3.16,1.34,5.54,3.44,7.14,2.1,1.6,4.7,2.4,7.81,2.4,1.13,0,2.31-.12,3.51-.37,1.21-.25,2.33-.67,3.37-1.26s1.89-1.34,2.55-2.26c.67-.91,1-2.04,1-3.37,0-1.13-.23-2.08-.7-2.85-.47-.76-1.1-1.41-1.89-1.92-.79-.52-1.69-.95-2.7-1.29-1.01-.34-2.04-.64-3.07-.89l-5.99-1.33c-1.53-.39-2.94-.85-4.22-1.37-1.28-.52-2.41-1.16-3.37-1.92-.96-.76-1.71-1.7-2.26-2.81-.54-1.11-.81-2.48-.81-4.11,0-1.92.43-3.58,1.29-4.96.86-1.38,1.99-2.49,3.37-3.33,1.38-.84,2.92-1.45,4.62-1.85,1.7-.39,3.39-.59,5.07-.59,1.92,0,3.71.25,5.36.74,1.65.49,3.11,1.26,4.37,2.29,1.26,1.04,2.26,2.32,3,3.85.74,1.53,1.16,3.33,1.26,5.4h-4.66c-.05-1.43-.35-2.68-.89-3.74Z" style="fill:#00154c;"/><path d="M342.72,239.71c.79-1.63,1.86-2.96,3.22-4,1.36-1.04,2.95-1.8,4.77-2.29,1.83-.49,3.85-.74,6.07-.74,1.68,0,3.35.16,5.03.48,1.68.32,3.18.92,4.51,1.81,1.33.89,2.42,2.13,3.26,3.74.84,1.6,1.26,3.69,1.26,6.25v20.28c0,1.88.91,2.81,2.74,2.81.54,0,1.04-.1,1.48-.3v3.92c-.54.1-1.02.17-1.44.22-.42.05-.95.07-1.59.07-1.18,0-2.13-.16-2.85-.48-.72-.32-1.27-.78-1.67-1.37-.4-.59-.66-1.29-.78-2.11-.12-.81-.18-1.71-.18-2.7h-.15c-.84,1.23-1.69,2.33-2.55,3.29-.86.96-1.83,1.76-2.89,2.41-1.06.64-2.27,1.13-3.63,1.48-1.36.34-2.97.52-4.85.52-1.78,0-3.44-.21-5-.63-1.55-.42-2.91-1.08-4.07-2-1.16-.91-2.07-2.07-2.74-3.48s-1-3.07-1-5c0-2.66.59-4.75,1.78-6.25,1.18-1.5,2.75-2.65,4.7-3.44,1.95-.79,4.14-1.34,6.59-1.67,2.44-.32,4.92-.63,7.44-.93.99-.1,1.85-.22,2.59-.37.74-.15,1.36-.41,1.85-.78s.88-.88,1.15-1.52c.27-.64.41-1.48.41-2.52,0-1.58-.26-2.87-.78-3.88-.52-1.01-1.23-1.81-2.15-2.41s-1.97-1-3.18-1.22c-1.21-.22-2.5-.33-3.88-.33-2.96,0-5.38.7-7.25,2.11-1.88,1.41-2.86,3.66-2.96,6.77h-4.66c.15-2.22.62-4.14,1.41-5.77ZM366.03,251.1c-.3.54-.86.94-1.7,1.18-.84.25-1.58.42-2.22.52-1.97.35-4.01.65-6.11.92-2.1.27-4.01.68-5.73,1.22-1.73.54-3.15,1.32-4.25,2.33-1.11,1.01-1.67,2.46-1.67,4.33,0,1.18.23,2.23.7,3.15.47.91,1.1,1.7,1.89,2.37.79.67,1.7,1.17,2.74,1.52,1.04.35,2.1.52,3.18.52,1.78,0,3.48-.27,5.11-.81,1.63-.54,3.04-1.33,4.25-2.37,1.21-1.04,2.17-2.29,2.89-3.77.71-1.48,1.07-3.16,1.07-5.03v-6.07h-.15Z" style="fill:#00154c;"/><path d="M398.52,233.79v3.92h-7.77v25.75c0,1.53.21,2.73.63,3.59.42.86,1.47,1.34,3.15,1.44,1.33,0,2.66-.07,4-.22v3.92c-.69,0-1.38.02-2.07.07-.69.05-1.38.07-2.07.07-3.11,0-5.28-.6-6.51-1.81-1.23-1.21-1.83-3.44-1.78-6.7v-26.12h-6.66v-3.92h6.66v-11.47h4.66v11.47h7.77Z" style="fill:#00154c;"/><path d="M413.17,219.14v7.47h-4.66v-7.47h4.66ZM413.17,233.79v38.18h-4.66v-38.18h4.66Z" style="fill:#00154c;"/><path d="M449.17,234.31c2.24,1.09,4.13,2.54,5.66,4.37,1.53,1.83,2.69,3.96,3.48,6.4.79,2.44,1.18,5.04,1.18,7.81s-.4,5.36-1.18,7.81c-.79,2.44-1.95,4.58-3.48,6.4-1.53,1.83-3.42,3.27-5.66,4.33-2.25,1.06-4.82,1.59-7.73,1.59s-5.49-.53-7.73-1.59c-2.25-1.06-4.13-2.5-5.66-4.33s-2.69-3.96-3.48-6.4c-.79-2.44-1.18-5.04-1.18-7.81s.39-5.37,1.18-7.81c.79-2.44,1.95-4.58,3.48-6.4s3.42-3.28,5.66-4.37c2.24-1.08,4.82-1.63,7.73-1.63s5.49.54,7.73,1.63ZM435.59,238.01c-1.68.94-3.07,2.17-4.18,3.7-1.11,1.53-1.95,3.27-2.52,5.22-.57,1.95-.85,3.93-.85,5.96s.28,4.01.85,5.96c.57,1.95,1.41,3.69,2.52,5.22s2.5,2.76,4.18,3.7c1.68.94,3.63,1.41,5.85,1.41s4.17-.47,5.85-1.41c1.68-.94,3.07-2.17,4.18-3.7,1.11-1.53,1.95-3.27,2.52-5.22.57-1.95.85-3.93.85-5.96s-.28-4.01-.85-5.96c-.57-1.95-1.41-3.69-2.52-5.22-1.11-1.53-2.5-2.76-4.18-3.7-1.68-.94-3.63-1.41-5.85-1.41s-4.17.47-5.85,1.41Z" style="fill:#00154c;"/><path d="M474.22,233.79v6.59h.15c.89-2.32,2.47-4.18,4.74-5.59,2.27-1.41,4.76-2.11,7.47-2.11s4.9.35,6.7,1.04c1.8.69,3.24,1.67,4.33,2.92,1.08,1.26,1.85,2.8,2.29,4.62s.67,3.87.67,6.14v24.57h-4.66v-23.83c0-1.63-.15-3.15-.44-4.55-.3-1.41-.81-2.63-1.55-3.66s-1.74-1.85-3-2.44-2.82-.89-4.7-.89-3.54.33-4.99,1c-1.46.67-2.69,1.58-3.7,2.74-1.01,1.16-1.8,2.54-2.37,4.14-.57,1.6-.88,3.34-.92,5.22v22.27h-4.66v-38.18h4.66Z" style="fill:#00154c;"/><path d="M78.69,315.14v22.94h31.38v-22.94h5.03v52.84h-5.03v-25.6h-31.38v25.6h-5.03v-52.84h5.03Z" style="fill:#00154c;"/><path d="M128.72,329.79l12.58,32.56,11.77-32.56h4.66l-16.58,43.96c-.69,1.63-1.33,2.97-1.92,4.03-.59,1.06-1.25,1.9-1.96,2.52-.72.62-1.55,1.06-2.52,1.33-.96.27-2.18.41-3.66.41-.94-.05-1.67-.09-2.18-.11-.52-.03-.97-.11-1.37-.26v-3.92c.54.1,1.07.19,1.59.26.52.07,1.05.11,1.59.11,1.04,0,1.89-.15,2.55-.44s1.25-.7,1.74-1.22c.49-.52.91-1.15,1.26-1.89.34-.74.71-1.55,1.11-2.44l1.63-4.29-15.24-38.04h4.96Z" style="fill:#00154c;"/><path d="M194.8,367.97v-7.25h-.15c-.49,1.23-1.22,2.37-2.18,3.4s-2.06,1.91-3.29,2.63c-1.23.72-2.55,1.27-3.96,1.67-1.41.39-2.8.59-4.18.59-2.91,0-5.44-.53-7.59-1.59-2.15-1.06-3.93-2.52-5.36-4.37-1.43-1.85-2.49-4-3.18-6.44-.69-2.44-1.04-5.02-1.04-7.73s.34-5.29,1.04-7.73c.69-2.44,1.75-4.59,3.18-6.44,1.43-1.85,3.22-3.32,5.36-4.4,2.15-1.08,4.67-1.63,7.59-1.63,1.43,0,2.82.17,4.18.52,1.36.35,2.63.88,3.81,1.59,1.18.72,2.23,1.59,3.15,2.63.91,1.04,1.62,2.25,2.11,3.63h.15v-21.9h4.66v52.84h-4.29ZM169.23,354.76c.47,1.95,1.21,3.69,2.22,5.22,1.01,1.53,2.3,2.78,3.88,3.74,1.58.96,3.48,1.44,5.7,1.44,2.47,0,4.55-.48,6.25-1.44,1.7-.96,3.08-2.21,4.14-3.74,1.06-1.53,1.82-3.27,2.29-5.22.47-1.95.7-3.91.7-5.88s-.23-3.93-.7-5.88c-.47-1.95-1.23-3.69-2.29-5.22-1.06-1.53-2.44-2.77-4.14-3.74-1.7-.96-3.79-1.44-6.25-1.44-2.22,0-4.12.48-5.7,1.44-1.58.96-2.88,2.21-3.88,3.74-1.01,1.53-1.75,3.27-2.22,5.22-.47,1.95-.7,3.91-.7,5.88s.23,3.93.7,5.88Z" style="fill:#00154c;"/><path d="M215.44,329.79v8.95h.15c1.18-3.11,3.02-5.5,5.51-7.18,2.49-1.68,5.46-2.44,8.92-2.29v4.66c-2.12-.1-4.04.18-5.77.85-1.73.67-3.22,1.62-4.48,2.85-1.26,1.23-2.23,2.7-2.92,4.4-.69,1.7-1.04,3.56-1.04,5.59v20.35h-4.66v-38.18h4.29Z" style="fill:#00154c;"/><path d="M260.18,330.31c2.24,1.09,4.13,2.54,5.66,4.37,1.53,1.83,2.69,3.96,3.48,6.4.79,2.44,1.18,5.04,1.18,7.81s-.4,5.37-1.18,7.81c-.79,2.44-1.95,4.58-3.48,6.4-1.53,1.83-3.42,3.27-5.66,4.33-2.25,1.06-4.82,1.59-7.73,1.59s-5.49-.53-7.73-1.59c-2.25-1.06-4.13-2.5-5.66-4.33s-2.69-3.96-3.48-6.4c-.79-2.44-1.18-5.04-1.18-7.81s.39-5.37,1.18-7.81c.79-2.44,1.95-4.58,3.48-6.4s3.42-3.28,5.66-4.37c2.24-1.08,4.82-1.63,7.73-1.63s5.49.54,7.73,1.63ZM246.6,334.01c-1.68.94-3.07,2.17-4.18,3.7s-1.95,3.27-2.52,5.22c-.57,1.95-.85,3.93-.85,5.96s.28,4.01.85,5.96c.57,1.95,1.41,3.69,2.52,5.22,1.11,1.53,2.5,2.76,4.18,3.7,1.68.94,3.63,1.41,5.85,1.41s4.17-.47,5.85-1.41c1.68-.94,3.07-2.17,4.18-3.7,1.11-1.53,1.95-3.27,2.52-5.22.57-1.95.85-3.93.85-5.96s-.28-4.01-.85-5.96c-.57-1.95-1.41-3.69-2.52-5.22-1.11-1.53-2.5-2.76-4.18-3.7-1.68-.94-3.63-1.41-5.85-1.41s-4.17.47-5.85,1.41Z" style="fill:#00154c;"/><path d="M311.98,372.49c-.62,2.27-1.59,4.19-2.92,5.77-1.33,1.58-3.07,2.79-5.22,3.63-2.15.84-4.77,1.26-7.88,1.26-1.92,0-3.8-.22-5.62-.67s-3.47-1.14-4.92-2.07c-1.46-.94-2.66-2.13-3.63-3.59s-1.52-3.19-1.67-5.22h4.66c.25,1.43.73,2.63,1.44,3.59.71.96,1.58,1.74,2.59,2.33,1.01.59,2.13,1.02,3.37,1.29,1.23.27,2.49.41,3.77.41,4.34,0,7.47-1.23,9.4-3.7,1.92-2.47,2.89-6.02,2.89-10.66v-5.18h-.15c-1.08,2.37-2.68,4.27-4.77,5.7-2.1,1.43-4.55,2.15-7.36,2.15-3.06,0-5.67-.5-7.84-1.52-2.17-1.01-3.96-2.41-5.37-4.18-1.41-1.78-2.43-3.86-3.07-6.25-.64-2.39-.96-4.95-.96-7.66s.38-5.09,1.15-7.44c.76-2.34,1.87-4.39,3.33-6.14,1.45-1.75,3.26-3.13,5.4-4.14,2.15-1.01,4.6-1.52,7.36-1.52,1.43,0,2.78.2,4.03.59,1.26.4,2.41.95,3.44,1.67,1.04.72,1.96,1.54,2.77,2.48.81.94,1.44,1.92,1.89,2.96h.15v-6.59h4.66v35.08c0,2.81-.31,5.35-.92,7.62ZM301.28,362.31c1.53-.86,2.81-2,3.85-3.4,1.04-1.41,1.81-3.02,2.33-4.85.52-1.82.78-3.7.78-5.62s-.22-3.75-.67-5.62c-.44-1.87-1.16-3.58-2.15-5.11-.99-1.53-2.26-2.76-3.81-3.7-1.55-.94-3.44-1.41-5.66-1.41s-4.12.46-5.7,1.37c-1.58.91-2.89,2.11-3.92,3.59-1.04,1.48-1.79,3.17-2.26,5.07-.47,1.9-.7,3.84-.7,5.81s.25,3.8.74,5.62c.49,1.83,1.26,3.44,2.29,4.85,1.04,1.41,2.34,2.54,3.92,3.4,1.58.86,3.45,1.29,5.62,1.29,2.02,0,3.8-.43,5.33-1.29Z" style="fill:#00154c;"/><path d="M329.26,329.79v8.95h.15c1.18-3.11,3.02-5.5,5.51-7.18,2.49-1.68,5.46-2.44,8.92-2.29v4.66c-2.12-.1-4.04.18-5.77.85-1.73.67-3.22,1.62-4.48,2.85-1.26,1.23-2.23,2.7-2.92,4.4-.69,1.7-1.04,3.56-1.04,5.59v20.35h-4.66v-38.18h4.29Z" style="fill:#00154c;"/><path d="M352.42,335.71c.79-1.63,1.86-2.96,3.22-4,1.36-1.04,2.95-1.8,4.77-2.29,1.83-.49,3.85-.74,6.07-.74,1.68,0,3.35.16,5.03.48,1.68.32,3.18.92,4.51,1.81s2.42,2.13,3.26,3.74c.84,1.6,1.26,3.69,1.26,6.25v20.28c0,1.88.91,2.81,2.74,2.81.54,0,1.04-.1,1.48-.3v3.92c-.54.1-1.02.17-1.44.22-.42.05-.95.07-1.59.07-1.18,0-2.13-.16-2.85-.48-.72-.32-1.27-.78-1.67-1.37-.4-.59-.66-1.29-.78-2.11-.12-.81-.18-1.71-.18-2.7h-.15c-.84,1.23-1.69,2.33-2.55,3.29-.86.96-1.83,1.76-2.89,2.41-1.06.64-2.27,1.13-3.63,1.48-1.36.34-2.97.52-4.85.52-1.78,0-3.44-.21-5-.63-1.55-.42-2.91-1.08-4.07-2-1.16-.91-2.07-2.07-2.74-3.48-.67-1.41-1-3.07-1-5,0-2.66.59-4.75,1.78-6.25,1.18-1.5,2.75-2.65,4.7-3.44,1.95-.79,4.14-1.34,6.59-1.67,2.44-.32,4.92-.63,7.44-.92.99-.1,1.85-.22,2.59-.37.74-.15,1.36-.41,1.85-.78s.88-.88,1.15-1.52c.27-.64.41-1.48.41-2.52,0-1.58-.26-2.87-.78-3.88-.52-1.01-1.23-1.81-2.15-2.41-.91-.59-1.97-1-3.18-1.22-1.21-.22-2.5-.33-3.88-.33-2.96,0-5.38.7-7.25,2.11-1.88,1.41-2.86,3.66-2.96,6.77h-4.66c.15-2.22.62-4.14,1.41-5.77ZM375.73,347.1c-.3.54-.86.94-1.7,1.18s-1.58.42-2.22.52c-1.97.35-4.01.65-6.11.92-2.1.27-4.01.68-5.73,1.22-1.73.54-3.15,1.32-4.25,2.33-1.11,1.01-1.67,2.46-1.67,4.33,0,1.18.23,2.23.7,3.15.47.91,1.1,1.7,1.89,2.37.79.67,1.7,1.17,2.74,1.52,1.04.35,2.1.52,3.18.52,1.78,0,3.48-.27,5.11-.81,1.63-.54,3.04-1.33,4.25-2.37,1.21-1.04,2.17-2.29,2.89-3.77.71-1.48,1.07-3.16,1.07-5.03v-6.07h-.15Z" style="fill:#00154c;"/><path d="M397.33,329.79v7.25h.15c1.08-2.66,2.85-4.72,5.29-6.18,2.44-1.45,5.22-2.18,8.33-2.18,2.91,0,5.44.54,7.58,1.63,2.15,1.09,3.93,2.55,5.37,4.4,1.43,1.85,2.49,4,3.18,6.44.69,2.44,1.04,5.02,1.04,7.73s-.35,5.29-1.04,7.73c-.69,2.44-1.75,4.59-3.18,6.44-1.43,1.85-3.22,3.31-5.37,4.37-2.15,1.06-4.67,1.59-7.58,1.59-1.38,0-2.76-.17-4.14-.52-1.38-.35-2.66-.86-3.85-1.55-1.18-.69-2.23-1.55-3.14-2.59-.91-1.04-1.62-2.24-2.11-3.63h-.15v21.31h-4.66v-52.24h4.29ZM422.9,343c-.47-1.95-1.21-3.69-2.22-5.22-1.01-1.53-2.31-2.77-3.88-3.74-1.58-.96-3.48-1.44-5.7-1.44-2.57,0-4.71.44-6.44,1.33-1.73.89-3.11,2.07-4.14,3.55-1.04,1.48-1.76,3.21-2.18,5.18-.42,1.97-.63,4.04-.63,6.22,0,1.97.23,3.93.7,5.88.47,1.95,1.23,3.69,2.29,5.22,1.06,1.53,2.44,2.78,4.14,3.74s3.79,1.44,6.25,1.44c2.22,0,4.12-.48,5.7-1.44,1.58-.96,2.87-2.21,3.88-3.74,1.01-1.53,1.75-3.27,2.22-5.22.47-1.95.7-3.91.7-5.88s-.23-3.93-.7-5.88Z" style="fill:#00154c;"/><path d="M443.29,315.14v21.24h.15c.89-2.32,2.47-4.18,4.74-5.59,2.27-1.41,4.76-2.11,7.47-2.11s4.9.35,6.7,1.04c1.8.69,3.24,1.67,4.33,2.92,1.08,1.26,1.85,2.8,2.29,4.62.44,1.83.67,3.87.67,6.14v24.57h-4.66v-23.83c0-1.63-.15-3.14-.44-4.55s-.81-2.63-1.55-3.66-1.74-1.85-3-2.44c-1.26-.59-2.82-.89-4.7-.89s-3.54.33-4.99,1c-1.46.67-2.69,1.58-3.7,2.74-1.01,1.16-1.8,2.54-2.37,4.14-.57,1.6-.88,3.34-.92,5.22v22.27h-4.66v-52.84h4.66Z" style="fill:#00154c;"/><path d="M486.35,315.14v7.47h-4.66v-7.47h4.66ZM486.35,329.79v38.18h-4.66v-38.18h4.66Z" style="fill:#00154c;"/><path d="M527.42,382.03v-21.31h-.15c-.49,1.38-1.2,2.59-2.11,3.63-.91,1.04-1.96,1.9-3.15,2.59-1.18.69-2.45,1.21-3.81,1.55-1.36.34-2.75.52-4.18.52-2.91,0-5.44-.53-7.59-1.59-2.15-1.06-3.93-2.52-5.36-4.37-1.43-1.85-2.49-4-3.18-6.44-.69-2.44-1.04-5.02-1.04-7.73s.34-5.29,1.04-7.73c.69-2.44,1.75-4.59,3.18-6.44,1.43-1.85,3.22-3.32,5.36-4.4,2.15-1.08,4.67-1.63,7.59-1.63,1.38,0,2.77.2,4.18.59,1.41.4,2.73.96,3.96,1.7,1.23.74,2.33,1.62,3.29,2.63.96,1.01,1.69,2.16,2.18,3.44h.15v-7.25h4.29v52.24h-4.66ZM502.23,354.76c.47,1.95,1.21,3.69,2.22,5.22,1.01,1.53,2.3,2.78,3.88,3.74,1.58.96,3.48,1.44,5.7,1.44,2.47,0,4.55-.48,6.25-1.44,1.7-.96,3.08-2.21,4.14-3.74,1.06-1.53,1.82-3.27,2.29-5.22.47-1.95.7-3.91.7-5.88s-.23-3.93-.7-5.88c-.47-1.95-1.23-3.69-2.29-5.22-1.06-1.53-2.44-2.77-4.14-3.74-1.7-.96-3.79-1.44-6.25-1.44-2.22,0-4.12.48-5.7,1.44-1.58.96-2.88,2.21-3.88,3.74-1.01,1.53-1.75,3.27-2.22,5.22-.47,1.95-.7,3.91-.7,5.88s.23,3.93.7,5.88Z" style="fill:#00154c;"/><path d="M570.79,367.97v-6.88h-.15c-1.23,2.57-3.02,4.53-5.36,5.88-2.34,1.36-4.95,2.04-7.81,2.04-2.42,0-4.48-.33-6.18-1s-3.08-1.62-4.14-2.85-1.84-2.74-2.33-4.51c-.49-1.78-.74-3.8-.74-6.07v-24.79h4.66v24.86c.1,3.45.9,6.07,2.4,7.84,1.5,1.78,4.11,2.66,7.81,2.66,2.02,0,3.75-.43,5.18-1.3,1.43-.86,2.61-2.01,3.55-3.44.94-1.43,1.63-3.07,2.07-4.92.44-1.85.67-3.74.67-5.66v-20.05h4.66v38.18h-4.29Z" style="fill:#00154c;"/><path d="M590.51,355.36c.47,1.8,1.22,3.42,2.26,4.85s2.34,2.62,3.92,3.55c1.58.94,3.48,1.41,5.7,1.41,3.4,0,6.07-.89,7.99-2.66,1.92-1.78,3.26-4.14,4-7.1h4.66c-.99,4.34-2.8,7.7-5.44,10.06-2.64,2.37-6.38,3.55-11.21,3.55-3.01,0-5.61-.53-7.81-1.59-2.2-1.06-3.98-2.52-5.37-4.37-1.38-1.85-2.41-4-3.07-6.44-.67-2.44-1-5.02-1-7.73,0-2.52.33-4.98,1-7.4.67-2.42,1.69-4.58,3.07-6.47,1.38-1.9,3.17-3.43,5.37-4.59,2.19-1.16,4.8-1.74,7.81-1.74s5.67.62,7.84,1.85c2.17,1.23,3.93,2.85,5.29,4.85,1.36,2,2.33,4.29,2.92,6.88.59,2.59.84,5.22.74,7.88h-29.38c0,1.68.23,3.42.7,5.22ZM613.6,341.11c-.57-1.63-1.37-3.07-2.4-4.33-1.04-1.26-2.29-2.27-3.77-3.03-1.48-.76-3.16-1.15-5.03-1.15s-3.63.38-5.11,1.15c-1.48.76-2.74,1.78-3.77,3.03-1.04,1.26-1.86,2.71-2.48,4.37-.62,1.65-1.02,3.34-1.22,5.07h24.72c-.05-1.78-.36-3.48-.92-5.11Z" style="fill:#00154c;"/><path d="M79.06,411.14v52.84h-5.03v-52.84h5.03Z" style="fill:#00154c;"/><path d="M96.97,425.79v6.59h.15c.89-2.32,2.47-4.18,4.74-5.59,2.27-1.41,4.76-2.11,7.47-2.11s4.9.35,6.7,1.04c1.8.69,3.24,1.67,4.33,2.92,1.08,1.26,1.85,2.8,2.29,4.62.44,1.83.67,3.87.67,6.14v24.57h-4.66v-23.83c0-1.63-.15-3.14-.44-4.55s-.81-2.63-1.55-3.66-1.74-1.85-3-2.44c-1.26-.59-2.82-.89-4.7-.89s-3.54.33-4.99,1c-1.46.67-2.69,1.58-3.7,2.74-1.01,1.16-1.8,2.54-2.37,4.14-.57,1.6-.88,3.34-.92,5.22v22.27h-4.66v-38.18h4.66Z" style="fill:#00154c;"/><path d="M150.47,425.79v3.92h-7.77v25.75c0,1.53.21,2.73.63,3.59.42.86,1.47,1.34,3.15,1.44,1.33,0,2.66-.07,4-.22v3.92c-.69,0-1.38.02-2.07.07-.69.05-1.38.07-2.07.07-3.11,0-5.28-.6-6.51-1.81-1.23-1.21-1.83-3.44-1.78-6.7v-26.12h-6.66v-3.92h6.66v-11.47h4.66v11.47h7.77Z" style="fill:#00154c;"/><path d="M163.83,451.36c.47,1.8,1.22,3.42,2.26,4.85s2.34,2.62,3.92,3.55c1.58.94,3.48,1.41,5.7,1.41,3.4,0,6.07-.89,7.99-2.66,1.92-1.78,3.26-4.14,4-7.1h4.66c-.99,4.34-2.8,7.7-5.44,10.06-2.64,2.37-6.38,3.55-11.21,3.55-3.01,0-5.61-.53-7.81-1.59-2.2-1.06-3.98-2.52-5.37-4.37-1.38-1.85-2.41-4-3.07-6.44-.67-2.44-1-5.02-1-7.73,0-2.52.33-4.98,1-7.4.67-2.42,1.69-4.58,3.07-6.47,1.38-1.9,3.17-3.43,5.37-4.59,2.19-1.16,4.8-1.74,7.81-1.74s5.67.62,7.84,1.85c2.17,1.23,3.93,2.85,5.29,4.85,1.36,2,2.33,4.29,2.92,6.88.59,2.59.84,5.22.74,7.88h-29.38c0,1.68.23,3.42.7,5.22ZM186.91,437.11c-.57-1.63-1.37-3.07-2.4-4.33-1.04-1.26-2.29-2.27-3.77-3.03-1.48-.76-3.16-1.15-5.03-1.15s-3.63.38-5.11,1.15c-1.48.76-2.74,1.78-3.77,3.03-1.04,1.26-1.86,2.71-2.48,4.37-.62,1.65-1.02,3.34-1.22,5.07h24.72c-.05-1.78-.36-3.48-.92-5.11Z" style="fill:#00154c;"/><path d="M206.27,425.79v8.95h.15c1.18-3.11,3.02-5.5,5.51-7.18,2.49-1.68,5.46-2.44,8.92-2.29v4.66c-2.12-.1-4.04.18-5.77.85-1.73.67-3.22,1.62-4.48,2.85-1.26,1.23-2.23,2.7-2.92,4.4-.69,1.7-1.04,3.56-1.04,5.59v20.35h-4.66v-38.18h4.29Z" style="fill:#00154c;"/><path d="M234.38,425.79v6.59h.15c.89-2.32,2.47-4.18,4.74-5.59,2.27-1.41,4.76-2.11,7.47-2.11s4.9.35,6.7,1.04c1.8.69,3.24,1.67,4.33,2.92,1.08,1.26,1.85,2.8,2.29,4.62.44,1.83.67,3.87.67,6.14v24.57h-4.66v-23.83c0-1.63-.15-3.14-.44-4.55s-.81-2.63-1.55-3.66-1.74-1.85-3-2.44c-1.26-.59-2.82-.89-4.7-.89s-3.54.33-4.99,1c-1.46.67-2.69,1.58-3.7,2.74-1.01,1.16-1.8,2.54-2.37,4.14-.57,1.6-.88,3.34-.92,5.22v22.27h-4.66v-38.18h4.66Z" style="fill:#00154c;"/><path d="M273.68,431.71c.79-1.63,1.86-2.96,3.22-4,1.36-1.04,2.95-1.8,4.77-2.29s3.85-.74,6.07-.74c1.68,0,3.35.16,5.03.48,1.68.32,3.18.93,4.51,1.81s2.42,2.13,3.26,3.74c.84,1.6,1.26,3.69,1.26,6.25v20.28c0,1.88.91,2.81,2.74,2.81.54,0,1.04-.1,1.48-.3v3.92c-.54.1-1.02.17-1.44.22-.42.05-.95.07-1.59.07-1.18,0-2.13-.16-2.85-.48-.72-.32-1.27-.78-1.67-1.37-.4-.59-.66-1.29-.78-2.11-.12-.81-.18-1.71-.18-2.7h-.15c-.84,1.23-1.69,2.33-2.55,3.29-.86.96-1.83,1.76-2.89,2.41-1.06.64-2.27,1.13-3.63,1.48-1.36.34-2.97.52-4.85.52-1.78,0-3.44-.21-5-.63-1.55-.42-2.91-1.08-4.07-2-1.16-.91-2.07-2.07-2.74-3.48-.67-1.41-1-3.07-1-5,0-2.66.59-4.75,1.78-6.25,1.18-1.5,2.75-2.65,4.7-3.44,1.95-.79,4.14-1.34,6.59-1.67,2.44-.32,4.92-.63,7.44-.92.99-.1,1.85-.22,2.59-.37.74-.15,1.36-.41,1.85-.78s.88-.88,1.15-1.52c.27-.64.41-1.48.41-2.52,0-1.58-.26-2.87-.78-3.88-.52-1.01-1.23-1.81-2.15-2.41-.91-.59-1.97-1-3.18-1.22-1.21-.22-2.5-.33-3.88-.33-2.96,0-5.38.7-7.25,2.11-1.88,1.41-2.86,3.66-2.96,6.77h-4.66c.15-2.22.62-4.14,1.41-5.77ZM296.99,443.1c-.3.54-.86.94-1.7,1.18s-1.58.42-2.22.52c-1.97.35-4.01.65-6.11.92-2.1.27-4.01.68-5.73,1.22-1.73.54-3.15,1.32-4.25,2.33-1.11,1.01-1.67,2.46-1.67,4.33,0,1.18.23,2.23.7,3.15.47.91,1.1,1.7,1.89,2.37.79.67,1.7,1.17,2.74,1.52,1.04.35,2.1.52,3.18.52,1.78,0,3.48-.27,5.11-.81,1.63-.54,3.04-1.33,4.25-2.37,1.21-1.04,2.17-2.29,2.89-3.77.71-1.48,1.07-3.16,1.07-5.03v-6.07h-.15Z" style="fill:#00154c;"/><path d="M329.47,425.79v3.92h-7.77v25.75c0,1.53.21,2.73.63,3.59.42.86,1.47,1.34,3.15,1.44,1.33,0,2.66-.07,4-.22v3.92c-.69,0-1.38.02-2.07.07-.69.05-1.38.07-2.07.07-3.11,0-5.28-.6-6.51-1.81-1.23-1.21-1.83-3.44-1.78-6.7v-26.12h-6.66v-3.92h6.66v-11.47h4.66v11.47h7.77Z" style="fill:#00154c;"/><path d="M344.12,411.14v7.47h-4.66v-7.47h4.66ZM344.12,425.79v38.18h-4.66v-38.18h4.66Z" style="fill:#00154c;"/><path d="M380.12,426.31c2.24,1.09,4.13,2.54,5.66,4.37,1.53,1.83,2.69,3.96,3.48,6.4.79,2.44,1.18,5.04,1.18,7.81s-.4,5.37-1.18,7.81c-.79,2.44-1.95,4.58-3.48,6.4-1.53,1.83-3.42,3.27-5.66,4.33-2.25,1.06-4.82,1.59-7.73,1.59s-5.49-.53-7.73-1.59c-2.25-1.06-4.13-2.5-5.66-4.33s-2.69-3.96-3.48-6.4c-.79-2.44-1.18-5.04-1.18-7.81s.39-5.37,1.18-7.81c.79-2.44,1.95-4.58,3.48-6.4s3.42-3.28,5.66-4.37c2.24-1.08,4.82-1.63,7.73-1.63s5.49.54,7.73,1.63ZM366.55,430.01c-1.68.94-3.07,2.17-4.18,3.7s-1.95,3.27-2.52,5.22c-.57,1.95-.85,3.93-.85,5.96s.28,4.01.85,5.96c.57,1.95,1.41,3.69,2.52,5.22,1.11,1.53,2.5,2.76,4.18,3.7,1.68.94,3.63,1.41,5.85,1.41s4.17-.47,5.85-1.41c1.68-.94,3.07-2.17,4.18-3.7,1.11-1.53,1.95-3.27,2.52-5.22.57-1.95.85-3.93.85-5.96s-.28-4.01-.85-5.96c-.57-1.95-1.41-3.69-2.52-5.22-1.11-1.53-2.5-2.76-4.18-3.7-1.68-.94-3.63-1.41-5.85-1.41s-4.17.47-5.85,1.41Z" style="fill:#00154c;"/><path d="M405.17,425.79v6.59h.15c.89-2.32,2.47-4.18,4.74-5.59,2.27-1.41,4.76-2.11,7.47-2.11s4.9.35,6.7,1.04c1.8.69,3.24,1.67,4.33,2.92,1.08,1.26,1.85,2.8,2.29,4.62.44,1.83.67,3.87.67,6.14v24.57h-4.66v-23.83c0-1.63-.15-3.14-.44-4.55s-.81-2.63-1.55-3.66-1.74-1.85-3-2.44c-1.26-.59-2.82-.89-4.7-.89s-3.54.33-4.99,1c-1.46.67-2.69,1.58-3.7,2.74-1.01,1.16-1.8,2.54-2.37,4.14-.57,1.6-.88,3.34-.92,5.22v22.27h-4.66v-38.18h4.66Z" style="fill:#00154c;"/><path d="M444.47,431.71c.79-1.63,1.86-2.96,3.22-4,1.36-1.04,2.95-1.8,4.77-2.29s3.85-.74,6.07-.74c1.68,0,3.35.16,5.03.48,1.68.32,3.18.93,4.51,1.81s2.42,2.13,3.26,3.74c.84,1.6,1.26,3.69,1.26,6.25v20.28c0,1.88.91,2.81,2.74,2.81.54,0,1.04-.1,1.48-.3v3.92c-.54.1-1.02.17-1.44.22-.42.05-.95.07-1.59.07-1.18,0-2.13-.16-2.85-.48-.72-.32-1.27-.78-1.67-1.37-.4-.59-.66-1.29-.78-2.11-.12-.81-.18-1.71-.18-2.7h-.15c-.84,1.23-1.69,2.33-2.55,3.29-.86.96-1.83,1.76-2.89,2.41-1.06.64-2.27,1.13-3.63,1.48-1.36.34-2.97.52-4.85.52-1.78,0-3.44-.21-5-.63-1.55-.42-2.91-1.08-4.07-2-1.16-.91-2.07-2.07-2.74-3.48-.67-1.41-1-3.07-1-5,0-2.66.59-4.75,1.78-6.25,1.18-1.5,2.75-2.65,4.7-3.44,1.95-.79,4.14-1.34,6.59-1.67,2.44-.32,4.92-.63,7.44-.92.99-.1,1.85-.22,2.59-.37.74-.15,1.36-.41,1.85-.78s.88-.88,1.15-1.52c.27-.64.41-1.48.41-2.52,0-1.58-.26-2.87-.78-3.88-.52-1.01-1.23-1.81-2.15-2.41-.91-.59-1.97-1-3.18-1.22-1.21-.22-2.5-.33-3.88-.33-2.96,0-5.38.7-7.25,2.11-1.88,1.41-2.86,3.66-2.96,6.77h-4.66c.15-2.22.62-4.14,1.41-5.77ZM467.78,443.1c-.3.54-.86.94-1.7,1.18s-1.58.42-2.22.52c-1.97.35-4.01.65-6.11.92-2.1.27-4.01.68-5.73,1.22-1.73.54-3.15,1.32-4.25,2.33-1.11,1.01-1.67,2.46-1.67,4.33,0,1.18.23,2.23.7,3.15.47.91,1.1,1.7,1.89,2.37.79.67,1.7,1.17,2.74,1.52,1.04.35,2.1.52,3.18.52,1.78,0,3.48-.27,5.11-.81,1.63-.54,3.04-1.33,4.25-2.37,1.21-1.04,2.17-2.29,2.89-3.77.71-1.48,1.07-3.16,1.07-5.03v-6.07h-.15Z" style="fill:#00154c;"/><path d="M489.83,411.14v52.84h-4.66v-52.84h4.66Z" style="fill:#00154c;"/><path d="M505.41,451.36c.47,1.8,1.22,3.42,2.26,4.85s2.34,2.62,3.92,3.55c1.58.94,3.48,1.41,5.7,1.41,3.4,0,6.07-.89,7.99-2.66,1.92-1.78,3.26-4.14,4-7.1h4.66c-.99,4.34-2.8,7.7-5.44,10.06-2.64,2.37-6.38,3.55-11.21,3.55-3.01,0-5.61-.53-7.81-1.59-2.2-1.06-3.98-2.52-5.37-4.37-1.38-1.85-2.41-4-3.07-6.44-.67-2.44-1-5.02-1-7.73,0-2.52.33-4.98,1-7.4.67-2.42,1.69-4.58,3.07-6.47,1.38-1.9,3.17-3.43,5.37-4.59,2.19-1.16,4.8-1.74,7.81-1.74s5.67.62,7.84,1.85c2.17,1.23,3.93,2.85,5.29,4.85,1.36,2,2.33,4.29,2.92,6.88.59,2.59.84,5.22.74,7.88h-29.38c0,1.68.23,3.42.7,5.22ZM528.49,437.11c-.57-1.63-1.37-3.07-2.4-4.33-1.04-1.26-2.29-2.27-3.77-3.03-1.48-.76-3.16-1.15-5.03-1.15s-3.63.38-5.11,1.15c-1.48.76-2.74,1.78-3.77,3.03-1.04,1.26-1.86,2.71-2.48,4.37-.62,1.65-1.02,3.34-1.22,5.07h24.72c-.05-1.78-.36-3.48-.92-5.11Z" style="fill:#00154c;"/></svg>