<?xml version="1.0" encoding="UTF-8"?><svg xmlns="http://www.w3.org/2000/svg" width="705.73mm" height="235.3mm" viewBox="0 0 2000.5 667"><g id="uuid-157c075c-9563-40eb-a7e9-c8abb251073e"><rect x="666.5" y="0" width="667" height="667" style="fill:#01a9aa;"/><rect x="1333.5" y="0" width="667" height="667" style="fill:#f0ebd8;"/><rect y="0" width="667" height="667" style="fill:#00154c;"/><path d="M345.73,314.66v-75.32c-4.09-.54-8.25-.82-12.48-.82s-8.57.3-12.73.86v75.28h25.22Z" style="fill:#fdda5a;"/><path d="M215.62,172.83l9.45,13,95.44,7.97v9.33c4.21-.4,8.45-.61,12.73-.61s8.36.2,12.48.59v-9.31l93.48-7.68,10.74-13.29-104.22-8.45v-7.09c8.47-4.6,14.23-13.57,14.23-23.89,0-15-12.16-27.16-27.16-27.16s-27.16,12.16-27.16,27.16c0,3.66.74,7.15,2.05,10.33,4.9-3.49,9.75-6.94,13.33-9.49,0-.12-.02-.23-.02-.35,0-6.52,5.29-11.81,11.81-11.81s11.81,5.29,11.81,11.81c0,4.99-3.09,9.24-7.46,10.98l-2.47,1.76-14.87,10.62c.22.12.44.25.67.37v6.76l-104.89,8.45Z" style="fill:#fdda5a;"/><path d="M362.63,311.41c-.73-.06-1.45-.05-2.17-.01-2.24-5.11-4.71-10.73-6.47-14.73,2.05-.98,3.92-2.4,5.45-4.28,5.55-6.8,4.54-16.81-2.26-22.36-1.02-.83-3.22-2.99-5.58-5.31v9.72c.44.4.82.74,1.15,1,3.8,3.1,4.37,8.71,1.27,12.51-.68.84-1.51,1.52-2.41,2.05v24.68s0,0,0,.02c-3.4,2.64-5.74,6.63-6.11,11.25-.23,2.86-2.46,13.85-2.76,17.56-.55,6.7,3.16,12.76,8.85,15.55-.63,3.84-1.31,8.05-1.95,11.98-5.46.88-10.3,4.59-12.37,10.14-1,2.69-6.13,12.65-7.43,16.14-2.18,5.86-.67,12.19,3.35,16.45-1.95,3.31-4.1,6.95-6.11,10.37-.81-.13-1.62-.19-2.43-.19-5.07,0-10.05,2.42-13.13,6.91-1.62,2.37-9.01,10.8-11.11,13.87-4.15,6.06-3.52,13.96,1.03,19.29l-3.82,5.59,9.38,2.97,2.38-3.53c1.36.37,2.74.56,4.13.56,5.07,0,10.05-2.42,13.13-6.91,1.62-2.37,9.01-10.8,11.11-13.87,4.5-6.57,3.38-15.3-2.26-20.57,1.93-3.28,3.96-6.73,5.81-9.89,1.15.26,2.3.4,3.44.4,6.45,0,12.51-3.95,14.9-10.35,1-2.69,6.13-12.65,7.43-16.14,2.92-7.82-.73-16.47-8.17-19.94.63-3.87,1.3-8.01,1.91-11.81,7.2-1.01,13.01-6.89,13.63-14.44.23-2.86,2.46-13.85,2.76-17.56.71-8.75-5.8-16.42-14.55-17.13ZM331.95,444.89c-.94,1.37-3.63,4.62-5.8,7.23-2.71,3.27-4.42,5.34-5.31,6.64-1.62,2.36-4.27,3.78-7.13,3.86l2.71-4.03h0c.32-.57.53-1.2.59-1.88.22-2.57-1.68-4.83-4.25-5.05-1.67-.14-3.2.62-4.14,1.87h0s-2.98,4.35-2.98,4.35c-.41-.78-.7-1.62-.87-2.51-.44-2.34.06-4.7,1.41-6.66.94-1.37,3.63-4.62,5.8-7.23,2.71-3.27,4.42-5.34,5.31-6.64,1.34-1.95,3.39-3.25,5.67-3.69-1.94,3.29-3.34,5.68-3.66,6.23-1.29,2.23-.52,5.09,1.71,6.38s5.09.52,6.38-1.71c.18-.31,1.95-3.32,4.38-7.46,2.19,2.96,2.39,7.1.19,10.31ZM360.24,383.04c.99,2.16,1.07,4.58.24,6.8-.58,1.55-2.41,5.36-3.88,8.41-1.84,3.83-3,6.25-3.55,7.73-1.24,3.32-4.36,5.57-7.87,5.76,1.06-1.8,1.89-3.21,2.37-4.03.15-.2.27-.42.38-.65.05-.09.08-.14.08-.14h0c.27-.59.42-1.24.42-1.92,0-2.58-2.09-4.67-4.67-4.67-1.68,0-3.14.89-3.96,2.22h0s-1.11,1.87-2.79,4.73c-1.26-2.21-1.57-4.95-.62-7.51.58-1.55,2.41-5.36,3.88-8.41,1.84-3.83,3-6.25,3.55-7.73.83-2.22,2.5-3.96,4.57-4.94-.6,3.7-1.03,6.38-1.13,7-.39,2.55,1.36,4.93,3.91,5.33,2.55.39,4.93-1.36,5.33-3.91.05-.32.52-3.23,1.18-7.34,1.09.86,1.97,1.97,2.56,3.27ZM370.2,327.98c-.13,1.65-.86,5.81-1.45,9.15-.73,4.18-1.19,6.83-1.32,8.41-.28,3.42-2.47,6.23-5.43,7.47.38-2.33.68-4.18.84-5.2.06-.24.1-.49.12-.74.02-.1.03-.16.03-.16h0c.04-.64-.05-1.3-.3-1.94-.94-2.4-3.64-3.59-6.05-2.66-1.56.61-2.6,1.97-2.89,3.51h0s-.37,2.28-.94,5.76c-2.1-1.79-3.34-4.52-3.1-7.48.13-1.65.86-5.81,1.45-9.15.73-4.18,1.19-6.83,1.32-8.41.16-1.99.98-3.76,2.21-5.15,1.07,2.38,2.1,4.72,2.45,5.74.85,2.44,3.51,3.73,5.94,2.88,2.44-.85,3.73-3.51,2.88-5.94-.09-.26-1-2.36-2.31-5.38,4.07,1.09,6.91,4.96,6.56,9.31Z" style="fill:#fdda5a;"/><path d="M314.84,237.85c-.99-2.69-3.59-13.6-4.88-17.09-2.29-6.22-8.08-10.14-14.32-10.38-.78-2.82-1.62-5.9-2.45-8.93,1.25-.85,2.37-1.87,3.34-3.04-8.7-.79-17.64-1.59-26.13-2.35,2.25,4.03,6.23,7.05,11.14,7.9.92.16,1.83.24,2.74.24.79,2.91,1.6,5.85,2.34,8.58-6.26,3.9-9.14,11.78-6.49,18.97.99,2.69,3.59,13.6,4.88,17.09,2.37,6.42,8.45,10.4,14.91,10.4,1.83,0,3.68-.32,5.49-.98.65-.24,1.26-.52,1.85-.83,2.62,2.56,5.5,5.37,8.24,8.05v-13.04c-.54-.53-1.08-1.05-1.61-1.57,2.08-3.87,2.57-8.58.93-13.02ZM304.96,242.14c-.16-.19-.35-.36-.54-.53-.07-.07-.12-.12-.12-.12h0c-.51-.39-1.1-.7-1.76-.87-.37-.09-.75-.14-1.12-.14-2.1,0-4.01,1.43-4.53,3.56-.4,1.63.12,3.26,1.21,4.38h0s1.45,1.42,3.68,3.6c-.61.13-1.22.2-1.84.2-3.71,0-7.06-2.34-8.35-5.82-.57-1.56-1.66-5.63-2.54-8.91-1.1-4.1-1.8-6.69-2.34-8.18-1.21-3.29-.34-6.84,1.93-9.22.69,2.53,1.18,4.3,1.32,4.78.7,2.48,3.28,3.92,5.77,3.22,2.48-.7,3.92-3.28,3.22-5.77-.07-.24-.55-1.98-1.26-4.59,2.6.81,4.75,2.78,5.72,5.42.57,1.56,1.66,5.63,2.54,8.91,1.1,4.1,1.8,6.69,2.34,8.18.64,1.74.72,3.59.25,5.35-1.6-1.56-2.85-2.78-3.56-3.47Z" style="fill:#fdda5a;"/><path d="M330.34,135.59c-1.53-.68-3.23-.46-4.52.42h0s-15.71,11.17-25.45,18.12c-2.22-2.17-5.09-3.72-8.37-4.29-.92-.16-1.84-.24-2.75-.24-7.58,0-14.29,5.44-15.64,13.16-.01.07-.03.15-.04.23l7.37-.62c1.28-3.42,4.55-5.77,8.31-5.77.51,0,1.03.05,1.55.14,1.37.24,2.63.79,3.71,1.58-.8.57-1.37.98-1.59,1.14-.73.53-1.26,1.24-1.57,2.03l16.79-1.42c8.43-6.02,19.71-14.07,22.68-16.19.22-.13.42-.28.61-.44.08-.06.14-.1.14-.1h0c.48-.43.89-.96,1.17-1.59,1.05-2.36,0-5.12-2.36-6.17Z" style="fill:#fdda5a;"/><path d="M367.51,382.73v8.09c.73-2.73.68-5.5,0-8.09Z" style="fill:#fdda5a;"/><path d="M324.31,418.97l2.83-4.8c-3.54-5.48-4.34-12.31-2-18.58.77-2.07,2.57-5.81,4.31-9.43,1.28-2.66,2.73-5.67,3.12-6.71,2.18-5.85,6.86-10.37,12.65-12.41l.51-3.1v-2.66c-3.4-2.64-5.88-6.22-7.12-10.27h-18.09v68.37c1.24-.25,2.51-.39,3.8-.41Z" style="fill:#fdda5a;"/><path d="M298.14,346h39.57c-.03-.46-.04-.93-.03-1.4,0-.01,0-.03,0-.04,0-.48.03-.96.07-1.45.18-2.2.9-6.29,1.59-10.25.51-2.91,1.09-6.2,1.18-7.31.05-.56.12-1.11.21-1.65.05-.28.11-.56.17-.84.05-.24.1-.47.16-.71.09-.37.19-.74.3-1.1.03-.11.07-.22.1-.33.14-.43.28-.85.45-1.26h0s-43.76,0-43.76,0v-55.42h-28.77v138.67h28.77v-56.91Z" style="fill:#fdda5a;"/><path d="M367.51,264.24v13.63c.07.31.12.62.18.94.04.21.07.43.1.64.07.5.12.99.16,1.49.01.18.02.37.03.55.02.56.02,1.11,0,1.67,0,.14,0,.28-.02.42-.06,1.08-.21,2.16-.44,3.23v20.48c.2.06.39.14.58.2.36.12.71.25,1.06.39.23.09.45.19.68.29.32.14.64.3.96.45.2.1.41.2.61.31.49.27.96.55,1.43.85.1.06.19.13.28.2.39.27.77.55,1.15.84.15.12.31.25.46.38.32.27.63.55.94.83.13.13.27.25.4.38.42.42.83.85,1.22,1.31,3.61,4.25,5.35,9.66,4.9,15.22-.18,2.2-.9,6.29-1.59,10.25-.51,2.91-1.09,6.2-1.18,7.31-.04.51-.1,1.01-.18,1.5-.03.17-.06.34-.09.5-.06.32-.11.64-.19.96-.05.2-.1.4-.15.6-.07.27-.14.55-.22.81-.07.22-.14.43-.21.65-.08.24-.17.48-.26.72-.09.23-.18.45-.27.67-.09.22-.18.43-.28.64-.11.24-.22.47-.33.7-.09.18-.19.36-.29.55-.13.25-.27.49-.41.73-.08.14-.18.28-.26.42-.17.27-.34.54-.52.8-.05.07-.1.13-.15.2-1.27,1.78-2.8,3.34-4.56,4.64,0,0,0,0,0,0-.35.26-.72.51-1.09.75-.01,0-.03.02-.04.03-.37.24-.75.46-1.13.67-.01,0-.03.01-.04.02-.39.22-.79.42-1.2.61v8.95c1.6,1.75,2.88,3.76,3.8,5.92,0,.01.01.03.02.04.16.38.31.76.44,1.15.03.1.07.19.1.29.12.35.23.71.33,1.07.04.13.07.27.11.41.09.34.18.69.25,1.03.03.16.06.31.09.47.19,1.04.31,2.1.34,3.16,0,.28.02.57.02.85,0,.24-.02.47-.03.71-.01.3-.03.6-.06.9-.02.23-.04.45-.07.68-.04.32-.09.63-.14.95-.04.21-.07.42-.11.63-.07.35-.16.7-.25,1.05-.04.17-.08.35-.13.52-.15.52-.31,1.04-.51,1.56-.09.25-.21.53-.33.83-.04.1-.09.21-.13.32-.09.21-.17.42-.27.64-.06.14-.13.3-.2.44-.09.21-.18.41-.28.63-.08.17-.16.35-.24.52-.1.21-.19.42-.29.64-.09.2-.19.41-.29.61-.09.2-.19.4-.28.61-.11.23-.22.47-.33.71-.09.19-.18.38-.27.57-.12.26-.25.51-.37.77-.09.18-.17.36-.26.54-.16.32-.31.65-.47.97-.01.03-.03.06-.04.09h28.6v-138.67h-28.77Z" style="fill:#fdda5a;"/><path d="M297.62,453.35s0,0,0,0c0,0,0-.02,0-.02,0,0,0,.02,0,.02Z" style="fill:#fdda5a;"/><path d="M292.72,451.78s0,0,0,0c.03-.38.08-.76.14-1.14.01-.07.02-.15.03-.22.05-.34.12-.68.19-1.01.02-.12.05-.23.07-.35.07-.31.15-.61.23-.91.04-.15.08-.3.13-.45.08-.28.17-.55.26-.82.06-.18.13-.36.2-.54.09-.24.18-.49.29-.73.09-.21.19-.42.28-.63.1-.21.19-.42.29-.62.13-.26.27-.51.41-.76.09-.16.17-.32.26-.47.24-.41.49-.81.77-1.21,1.25-1.82,3.9-5.02,6.46-8.11.31-.38.63-.76.95-1.14.02-.03.05-.06.07-.09.32-.39.64-.78.96-1.16-42.43-12.35-73.44-51.51-73.44-97.93,0-36.15,18.81-67.91,47.18-86.02-1.73-6.25-3.75-14.28-4.7-16.85-.77-2.1-1.2-4.25-1.32-6.37-9.98,5.58-19.26,12.56-27.56,20.87-23.61,23.61-36.61,54.99-36.61,88.37s13,64.77,36.61,88.37c13.7,13.7,30.03,23.82,47.85,29.91Z" style="fill:#fdda5a;"/><path d="M482.4,415.39l-7.09,12.11,8.27,4.73s-91.47,40.65-137.86,48.14v-22.51c28.67-2.82,55.25-15.35,75.89-35.99,23.61-23.61,36.61-54.99,36.61-88.37s-13-64.77-36.61-88.37c-23.61-23.61-54.99-36.61-88.37-36.61-7.28,0-14.47.62-21.51,1.83,1.14,1.58,2.1,3.32,2.81,5.24,1.18,3.21,3.18,11,4.77,16.88,4.55-.62,9.2-.95,13.93-.95,56.32,0,101.98,45.66,101.98,101.98,0,52.26-39.32,95.34-89.99,101.27-.11.01-.21.02-.32.03.03.12.05.24.08.36.08.33.15.66.21.99.03.17.06.34.09.5.05.35.1.7.14,1.06h0c.01.13.03.25.04.38,0,0,0,.01,0,.02.03.4.05.8.06,1.2,0,.16,0,.32,0,.49,0,.34,0,.68-.02,1.02,0,.12,0,.25-.02.37-.03.44-.07.88-.13,1.32-.02.14-.04.28-.06.42-.05.35-.11.69-.18,1.04-.03.13-.05.25-.08.38-.1.44-.21.89-.34,1.33-.02.06-.04.12-.06.19-.01.04-.03.09-.04.13-.11.36-.23.72-.37,1.07-.05.12-.09.24-.14.37-.17.44-.36.88-.56,1.31-.03.06-.07.13-.1.19-.18.38-.38.75-.59,1.12-.07.12-.13.23-.2.35-.25.42-.51.85-.79,1.26-.15.21-.31.45-.5.7-.06.09-.14.18-.2.27-.13.17-.25.34-.39.52-.09.11-.18.23-.27.34-.08.11-.17.22-.26.34-.05.07-.1.13-.16.2-.1.13-.21.26-.31.39-.14.18-.29.37-.44.55-.11.14-.23.28-.34.43-.15.19-.31.38-.46.57-.13.16-.25.31-.38.47-.11.14-.23.28-.34.41-.42.52-.86,1.04-1.3,1.57h0c-.37.45-.74.89-1.11,1.34-1.88,2.27-4.02,4.85-4.65,5.76-2.53,3.69-6.13,6.41-10.23,7.87v7c-3.52-.56-7.3-1.3-11.27-2.2l-.2.29-3.57-1.13-.61-.19c-49.1-12.02-123.43-44.64-123.43-44.64l9.43-5.6-7.97-12.7-49.16,27.97,9.75,14.84,14.4-9.53,175.37,112.61,174.56-112.24,14.77,8.86,8.57-13.88-48.73-27.47Z" style="fill:#fdda5a;"/></g><g id="uuid-e99dfbee-8a89-444d-bc85-a31bf12d50f9"><path d="M958.68,332.88c0,49.89-35.07,84.97-84.97,84.97s-84.72-35.07-84.72-86.2,34.58-85.95,84.72-85.95,84.97,34.83,84.97,87.19ZM840.12,331.64c0,27.42,13.09,44.95,33.84,44.95s33.59-17.54,33.59-44.46-13.09-45.2-33.84-45.2-33.59,17.54-33.59,44.71Z" style="fill:#fff;"/><path d="M1023.47,348.93v65.21h-49.4v-164.75h49.4v55.82h47.42v-55.82h49.4v164.75h-49.4v-65.21h-47.42Z" style="fill:#fff;"/><path d="M1199.85,414.14h-51.13v-164.75h51.13v164.75Z" style="fill:#fff;"/><path d="M1405.9,235.12c1.04-3.3,2.59-6.23,4.66-8.77,2.07-2.54,4.67-4.56,7.81-6.07,3.13-1.5,6.77-2.26,10.92-2.26s7.77.75,10.88,2.26c3.11,1.51,5.7,3.53,7.77,6.07,2.07,2.54,3.63,5.46,4.66,8.77,1.04,3.31,1.55,6.78,1.55,10.43s-.52,7.13-1.55,10.43c-1.04,3.31-2.59,6.22-4.66,8.73-2.07,2.52-4.66,4.53-7.77,6.03-3.11,1.5-6.73,2.26-10.88,2.26s-7.78-.75-10.92-2.26c-3.13-1.5-5.74-3.51-7.81-6.03-2.07-2.52-3.63-5.43-4.66-8.73-1.04-3.3-1.55-6.78-1.55-10.43s.52-7.13,1.55-10.43ZM1410.53,254.03c.76,2.79,1.95,5.28,3.55,7.47,1.6,2.2,3.66,3.96,6.18,5.29,2.52,1.33,5.52,2,9.03,2s6.5-.67,8.99-2c2.49-1.33,4.54-3.09,6.14-5.29,1.6-2.19,2.79-4.69,3.55-7.47.76-2.79,1.15-5.61,1.15-8.47s-.38-5.75-1.15-8.51c-.76-2.76-1.95-5.24-3.55-7.44-1.6-2.19-3.65-3.96-6.14-5.29-2.49-1.33-5.49-2-8.99-2s-6.51.67-9.03,2c-2.52,1.33-4.58,3.1-6.18,5.29-1.6,2.2-2.79,4.67-3.55,7.44-.77,2.76-1.15,5.6-1.15,8.51s.38,5.69,1.15,8.47Z" style="fill:#00154c;"/><path d="M1468.58,233.79v8.95h.15c1.18-3.11,3.02-5.5,5.51-7.18,2.49-1.68,5.46-2.44,8.92-2.29v4.66c-2.12-.1-4.04.18-5.77.85-1.73.67-3.22,1.62-4.48,2.85-1.26,1.23-2.23,2.7-2.92,4.4-.69,1.7-1.04,3.57-1.04,5.59v20.35h-4.66v-38.18h4.29Z" style="fill:#00154c;"/><path d="M1522.12,276.49c-.62,2.27-1.59,4.19-2.92,5.77-1.33,1.58-3.07,2.79-5.22,3.63-2.15.84-4.77,1.26-7.88,1.26-1.92,0-3.8-.22-5.62-.67s-3.47-1.14-4.92-2.07c-1.46-.94-2.66-2.13-3.63-3.59-.96-1.46-1.52-3.19-1.67-5.22h4.66c.25,1.43.73,2.63,1.44,3.59.71.96,1.58,1.74,2.59,2.33,1.01.59,2.13,1.02,3.37,1.29,1.23.27,2.49.41,3.77.41,4.34,0,7.47-1.23,9.4-3.7,1.92-2.47,2.89-6.02,2.89-10.66v-5.18h-.15c-1.08,2.37-2.68,4.27-4.77,5.7-2.1,1.43-4.55,2.15-7.36,2.15-3.06,0-5.67-.5-7.84-1.52-2.17-1.01-3.96-2.41-5.37-4.18-1.41-1.78-2.43-3.86-3.07-6.25-.64-2.39-.96-4.95-.96-7.66s.38-5.09,1.15-7.44c.76-2.34,1.87-4.39,3.33-6.14,1.45-1.75,3.26-3.13,5.4-4.14,2.15-1.01,4.6-1.52,7.36-1.52,1.43,0,2.78.2,4.03.59,1.26.4,2.41.95,3.44,1.67,1.04.72,1.96,1.54,2.77,2.48.81.94,1.44,1.92,1.89,2.96h.15v-6.59h4.66v35.08c0,2.81-.31,5.35-.92,7.62ZM1511.43,266.31c1.53-.86,2.81-2,3.85-3.4,1.04-1.41,1.81-3.02,2.33-4.85.52-1.82.78-3.7.78-5.62s-.22-3.75-.67-5.62c-.44-1.87-1.16-3.58-2.15-5.11-.99-1.53-2.26-2.76-3.81-3.7-1.55-.94-3.44-1.41-5.66-1.41s-4.12.46-5.7,1.37c-1.58.91-2.89,2.11-3.92,3.59-1.04,1.48-1.79,3.17-2.26,5.07-.47,1.9-.7,3.84-.7,5.81s.25,3.8.74,5.62c.49,1.83,1.26,3.44,2.29,4.85s2.34,2.54,3.92,3.4c1.58.86,3.45,1.29,5.62,1.29,2.02,0,3.8-.43,5.33-1.29Z" style="fill:#00154c;"/><path d="M1536.07,239.71c.79-1.63,1.86-2.96,3.22-4,1.36-1.04,2.95-1.8,4.77-2.29,1.83-.49,3.85-.74,6.07-.74,1.68,0,3.35.16,5.03.48,1.68.32,3.18.92,4.51,1.81,1.33.89,2.42,2.13,3.26,3.74.84,1.6,1.26,3.69,1.26,6.25v20.28c0,1.88.91,2.81,2.74,2.81.54,0,1.04-.1,1.48-.3v3.92c-.54.1-1.02.17-1.44.22-.42.05-.95.07-1.59.07-1.18,0-2.13-.16-2.85-.48-.72-.32-1.27-.78-1.67-1.37-.4-.59-.66-1.29-.78-2.11-.12-.81-.18-1.71-.18-2.7h-.15c-.84,1.23-1.69,2.33-2.55,3.29-.86.96-1.83,1.76-2.89,2.41-1.06.64-2.27,1.13-3.63,1.48-1.36.34-2.97.52-4.85.52-1.78,0-3.44-.21-5-.63-1.55-.42-2.91-1.08-4.07-2-1.16-.91-2.07-2.07-2.74-3.48s-1-3.07-1-5c0-2.66.59-4.75,1.78-6.25,1.18-1.5,2.75-2.65,4.7-3.44,1.95-.79,4.14-1.34,6.59-1.67,2.44-.32,4.92-.63,7.44-.93.99-.1,1.85-.22,2.59-.37.74-.15,1.36-.41,1.85-.78s.88-.88,1.15-1.52c.27-.64.41-1.48.41-2.52,0-1.58-.26-2.87-.78-3.88-.52-1.01-1.23-1.81-2.15-2.41s-1.97-1-3.18-1.22c-1.21-.22-2.5-.33-3.88-.33-2.96,0-5.38.7-7.25,2.11-1.88,1.41-2.86,3.66-2.96,6.77h-4.66c.15-2.22.62-4.14,1.41-5.77ZM1559.38,251.1c-.3.54-.86.94-1.7,1.18-.84.25-1.58.42-2.22.52-1.97.35-4.01.65-6.11.92-2.1.27-4.01.68-5.73,1.22-1.73.54-3.15,1.32-4.25,2.33-1.11,1.01-1.67,2.46-1.67,4.33,0,1.18.23,2.23.7,3.15.47.91,1.1,1.7,1.89,2.37.79.67,1.7,1.17,2.74,1.52,1.04.35,2.1.52,3.18.52,1.78,0,3.48-.27,5.11-.81,1.63-.54,3.04-1.33,4.25-2.37,1.21-1.04,2.17-2.29,2.89-3.77.71-1.48,1.07-3.16,1.07-5.03v-6.07h-.15Z" style="fill:#00154c;"/><path d="M1581.28,233.79v6.59h.15c.89-2.32,2.47-4.18,4.74-5.59,2.27-1.41,4.76-2.11,7.47-2.11s4.9.35,6.7,1.04c1.8.69,3.24,1.67,4.33,2.92,1.08,1.26,1.85,2.8,2.29,4.62s.67,3.87.67,6.14v24.57h-4.66v-23.83c0-1.63-.15-3.15-.44-4.55-.3-1.41-.81-2.63-1.55-3.66s-1.74-1.85-3-2.44-2.82-.89-4.7-.89-3.54.33-4.99,1c-1.46.67-2.69,1.58-3.7,2.74-1.01,1.16-1.8,2.54-2.37,4.14-.57,1.6-.88,3.34-.92,5.22v22.27h-4.66v-38.18h4.66Z" style="fill:#00154c;"/><path d="M1624.35,219.14v7.47h-4.66v-7.47h4.66ZM1624.35,233.79v38.18h-4.66v-38.18h4.66Z" style="fill:#00154c;"/><path d="M1658.46,241.23c-.54-1.06-1.27-1.94-2.18-2.63-.91-.69-1.96-1.2-3.15-1.52-1.18-.32-2.44-.48-3.77-.48-1.04,0-2.08.11-3.15.33-1.06.22-2.04.59-2.92,1.11-.89.52-1.6,1.2-2.15,2.04-.54.84-.81,1.88-.81,3.11,0,1.04.26,1.91.78,2.63.52.72,1.17,1.32,1.96,1.81.79.49,1.65.9,2.59,1.22.94.32,1.8.58,2.59.78l6.22,1.41c1.33.2,2.65.55,3.96,1.07,1.31.52,2.47,1.2,3.48,2.04,1.01.84,1.84,1.88,2.48,3.11.64,1.23.96,2.69.96,4.37,0,2.07-.47,3.84-1.41,5.29-.94,1.46-2.13,2.64-3.59,3.55-1.46.91-3.1,1.57-4.92,1.96-1.83.39-3.63.59-5.4.59-4.49,0-8.13-1.06-10.92-3.18-2.79-2.12-4.38-5.52-4.77-10.21h4.66c.2,3.16,1.34,5.54,3.44,7.14,2.1,1.6,4.7,2.4,7.81,2.4,1.13,0,2.31-.12,3.51-.37,1.21-.25,2.33-.67,3.37-1.26s1.89-1.34,2.55-2.26c.67-.91,1-2.04,1-3.37,0-1.13-.23-2.08-.7-2.85-.47-.76-1.1-1.41-1.89-1.92-.79-.52-1.69-.95-2.7-1.29-1.01-.34-2.04-.64-3.07-.89l-5.99-1.33c-1.53-.39-2.94-.85-4.22-1.37-1.28-.52-2.41-1.16-3.37-1.92-.96-.76-1.71-1.7-2.26-2.81-.54-1.11-.81-2.48-.81-4.11,0-1.92.43-3.58,1.29-4.96.86-1.38,1.99-2.49,3.37-3.33,1.38-.84,2.92-1.45,4.62-1.85,1.7-.39,3.39-.59,5.07-.59,1.92,0,3.71.25,5.36.74,1.65.49,3.11,1.26,4.37,2.29,1.26,1.04,2.26,2.32,3,3.85.74,1.53,1.16,3.33,1.26,5.4h-4.66c-.05-1.43-.35-2.68-.89-3.74Z" style="fill:#00154c;"/><path d="M1676.22,239.71c.79-1.63,1.86-2.96,3.22-4,1.36-1.04,2.95-1.8,4.77-2.29,1.83-.49,3.85-.74,6.07-.74,1.68,0,3.35.16,5.03.48,1.68.32,3.18.92,4.51,1.81,1.33.89,2.42,2.13,3.26,3.74.84,1.6,1.26,3.69,1.26,6.25v20.28c0,1.88.91,2.81,2.74,2.81.54,0,1.04-.1,1.48-.3v3.92c-.54.1-1.02.17-1.44.22-.42.05-.95.07-1.59.07-1.18,0-2.13-.16-2.85-.48-.72-.32-1.27-.78-1.67-1.37-.4-.59-.66-1.29-.78-2.11-.12-.81-.18-1.71-.18-2.7h-.15c-.84,1.23-1.69,2.33-2.55,3.29-.86.96-1.83,1.76-2.89,2.41-1.06.64-2.27,1.13-3.63,1.48-1.36.34-2.97.52-4.85.52-1.78,0-3.44-.21-5-.63-1.55-.42-2.91-1.08-4.07-2-1.16-.91-2.07-2.07-2.74-3.48s-1-3.07-1-5c0-2.66.59-4.75,1.78-6.25,1.18-1.5,2.75-2.65,4.7-3.44,1.95-.79,4.14-1.34,6.59-1.67,2.44-.32,4.92-.63,7.44-.93.99-.1,1.85-.22,2.59-.37.74-.15,1.36-.41,1.85-.78s.88-.88,1.15-1.52c.27-.64.41-1.48.41-2.52,0-1.58-.26-2.87-.78-3.88-.52-1.01-1.23-1.81-2.15-2.41s-1.97-1-3.18-1.22c-1.21-.22-2.5-.33-3.88-.33-2.96,0-5.38.7-7.25,2.11-1.88,1.41-2.86,3.66-2.96,6.77h-4.66c.15-2.22.62-4.14,1.41-5.77ZM1699.53,251.1c-.3.54-.86.94-1.7,1.18-.84.25-1.58.42-2.22.52-1.97.35-4.01.65-6.11.92-2.1.27-4.01.68-5.73,1.22-1.73.54-3.15,1.32-4.25,2.33-1.11,1.01-1.67,2.46-1.67,4.33,0,1.18.23,2.23.7,3.15.47.91,1.1,1.7,1.89,2.37.79.67,1.7,1.17,2.74,1.52,1.04.35,2.1.52,3.18.52,1.78,0,3.48-.27,5.11-.81,1.63-.54,3.04-1.33,4.25-2.37,1.21-1.04,2.17-2.29,2.89-3.77.71-1.48,1.07-3.16,1.07-5.03v-6.07h-.15Z" style="fill:#00154c;"/><path d="M1732.02,233.79v3.92h-7.77v25.75c0,1.53.21,2.73.63,3.59.42.86,1.47,1.34,3.15,1.44,1.33,0,2.66-.07,4-.22v3.92c-.69,0-1.38.02-2.07.07-.69.05-1.38.07-2.07.07-3.11,0-5.28-.6-6.51-1.81-1.23-1.21-1.83-3.44-1.78-6.7v-26.12h-6.66v-3.92h6.66v-11.47h4.66v11.47h7.77Z" style="fill:#00154c;"/><path d="M1746.67,219.14v7.47h-4.66v-7.47h4.66ZM1746.67,233.79v38.18h-4.66v-38.18h4.66Z" style="fill:#00154c;"/><path d="M1782.67,234.31c2.24,1.09,4.13,2.54,5.66,4.37,1.53,1.83,2.69,3.96,3.48,6.4.79,2.44,1.18,5.04,1.18,7.81s-.4,5.36-1.18,7.81c-.79,2.44-1.95,4.58-3.48,6.4-1.53,1.83-3.42,3.27-5.66,4.33-2.25,1.06-4.82,1.59-7.73,1.59s-5.49-.53-7.73-1.59c-2.25-1.06-4.13-2.5-5.66-4.33s-2.69-3.96-3.48-6.4c-.79-2.44-1.18-5.04-1.18-7.81s.39-5.37,1.18-7.81c.79-2.44,1.95-4.58,3.48-6.4s3.42-3.28,5.66-4.37c2.24-1.08,4.82-1.63,7.73-1.63s5.49.54,7.73,1.63ZM1769.09,238.01c-1.68.94-3.07,2.17-4.18,3.7-1.11,1.53-1.95,3.27-2.52,5.22-.57,1.95-.85,3.93-.85,5.96s.28,4.01.85,5.96c.57,1.95,1.41,3.69,2.52,5.22s2.5,2.76,4.18,3.7c1.68.94,3.63,1.41,5.85,1.41s4.17-.47,5.85-1.41c1.68-.94,3.07-2.17,4.18-3.7,1.11-1.53,1.95-3.27,2.52-5.22.57-1.95.85-3.93.85-5.96s-.28-4.01-.85-5.96c-.57-1.95-1.41-3.69-2.52-5.22-1.11-1.53-2.5-2.76-4.18-3.7-1.68-.94-3.63-1.41-5.85-1.41s-4.17.47-5.85,1.41Z" style="fill:#00154c;"/><path d="M1807.72,233.79v6.59h.15c.89-2.32,2.47-4.18,4.74-5.59,2.27-1.41,4.76-2.11,7.47-2.11s4.9.35,6.7,1.04c1.8.69,3.24,1.67,4.33,2.92,1.08,1.26,1.85,2.8,2.29,4.62s.67,3.87.67,6.14v24.57h-4.66v-23.83c0-1.63-.15-3.15-.44-4.55-.3-1.41-.81-2.63-1.55-3.66s-1.74-1.85-3-2.44-2.82-.89-4.7-.89-3.54.33-4.99,1c-1.46.67-2.69,1.58-3.7,2.74-1.01,1.16-1.8,2.54-2.37,4.14-.57,1.6-.88,3.34-.92,5.22v22.27h-4.66v-38.18h4.66Z" style="fill:#00154c;"/><path d="M1412.19,315.14v22.94h31.38v-22.94h5.03v52.84h-5.03v-25.6h-31.38v25.6h-5.03v-52.84h5.03Z" style="fill:#00154c;"/><path d="M1462.22,329.79l12.58,32.56,11.77-32.56h4.66l-16.58,43.96c-.69,1.63-1.33,2.97-1.92,4.03-.59,1.06-1.25,1.9-1.96,2.52-.72.62-1.55,1.06-2.52,1.33-.96.27-2.18.41-3.66.41-.94-.05-1.67-.09-2.18-.11-.52-.03-.97-.11-1.37-.26v-3.92c.54.1,1.07.19,1.59.26.52.07,1.05.11,1.59.11,1.04,0,1.89-.15,2.55-.44s1.25-.7,1.74-1.22c.49-.52.91-1.15,1.26-1.89.34-.74.71-1.55,1.11-2.44l1.63-4.29-15.24-38.04h4.96Z" style="fill:#00154c;"/><path d="M1528.3,367.97v-7.25h-.15c-.49,1.23-1.22,2.37-2.18,3.4s-2.06,1.91-3.29,2.63c-1.23.72-2.55,1.27-3.96,1.67-1.41.39-2.8.59-4.18.59-2.91,0-5.44-.53-7.59-1.59-2.15-1.06-3.93-2.52-5.36-4.37-1.43-1.85-2.49-4-3.18-6.44-.69-2.44-1.04-5.02-1.04-7.73s.34-5.29,1.04-7.73c.69-2.44,1.75-4.59,3.18-6.44,1.43-1.85,3.22-3.32,5.36-4.4,2.15-1.08,4.67-1.63,7.59-1.63,1.43,0,2.82.17,4.18.52,1.36.35,2.63.88,3.81,1.59,1.18.72,2.23,1.59,3.15,2.63.91,1.04,1.62,2.25,2.11,3.63h.15v-21.9h4.66v52.84h-4.29ZM1502.73,354.76c.47,1.95,1.21,3.69,2.22,5.22,1.01,1.53,2.3,2.78,3.88,3.74,1.58.96,3.48,1.44,5.7,1.44,2.47,0,4.55-.48,6.25-1.44,1.7-.96,3.08-2.21,4.14-3.74,1.06-1.53,1.82-3.27,2.29-5.22.47-1.95.7-3.91.7-5.88s-.23-3.93-.7-5.88c-.47-1.95-1.23-3.69-2.29-5.22-1.06-1.53-2.44-2.77-4.14-3.74-1.7-.96-3.79-1.44-6.25-1.44-2.22,0-4.12.48-5.7,1.44-1.58.96-2.88,2.21-3.88,3.74-1.01,1.53-1.75,3.27-2.22,5.22-.47,1.95-.7,3.91-.7,5.88s.23,3.93.7,5.88Z" style="fill:#00154c;"/><path d="M1548.94,329.79v8.95h.15c1.18-3.11,3.02-5.5,5.51-7.18,2.49-1.68,5.46-2.44,8.92-2.29v4.66c-2.12-.1-4.04.18-5.77.85-1.73.67-3.22,1.62-4.48,2.85-1.26,1.23-2.23,2.7-2.92,4.4-.69,1.7-1.04,3.56-1.04,5.59v20.35h-4.66v-38.18h4.29Z" style="fill:#00154c;"/><path d="M1593.68,330.31c2.24,1.09,4.13,2.54,5.66,4.37,1.53,1.83,2.69,3.96,3.48,6.4.79,2.44,1.18,5.04,1.18,7.81s-.4,5.37-1.18,7.81c-.79,2.44-1.95,4.58-3.48,6.4-1.53,1.83-3.42,3.27-5.66,4.33-2.25,1.06-4.82,1.59-7.73,1.59s-5.49-.53-7.73-1.59c-2.25-1.06-4.13-2.5-5.66-4.33s-2.69-3.96-3.48-6.4c-.79-2.44-1.18-5.04-1.18-7.81s.39-5.37,1.18-7.81c.79-2.44,1.95-4.58,3.48-6.4s3.42-3.28,5.66-4.37c2.24-1.08,4.82-1.63,7.73-1.63s5.49.54,7.73,1.63ZM1580.1,334.01c-1.68.94-3.07,2.17-4.18,3.7s-1.95,3.27-2.52,5.22c-.57,1.95-.85,3.93-.85,5.96s.28,4.01.85,5.96c.57,1.95,1.41,3.69,2.52,5.22,1.11,1.53,2.5,2.76,4.18,3.7,1.68.94,3.63,1.41,5.85,1.41s4.17-.47,5.85-1.41c1.68-.94,3.07-2.17,4.18-3.7,1.11-1.53,1.95-3.27,2.52-5.22.57-1.95.85-3.93.85-5.96s-.28-4.01-.85-5.96c-.57-1.95-1.41-3.69-2.52-5.22-1.11-1.53-2.5-2.76-4.18-3.7-1.68-.94-3.63-1.41-5.85-1.41s-4.17.47-5.85,1.41Z" style="fill:#00154c;"/><path d="M1645.48,372.49c-.62,2.27-1.59,4.19-2.92,5.77-1.33,1.58-3.07,2.79-5.22,3.63-2.15.84-4.77,1.26-7.88,1.26-1.92,0-3.8-.22-5.62-.67s-3.47-1.14-4.92-2.07c-1.46-.94-2.66-2.13-3.63-3.59s-1.52-3.19-1.67-5.22h4.66c.25,1.43.73,2.63,1.44,3.59.71.96,1.58,1.74,2.59,2.33,1.01.59,2.13,1.02,3.37,1.29,1.23.27,2.49.41,3.77.41,4.34,0,7.47-1.23,9.4-3.7,1.92-2.47,2.89-6.02,2.89-10.66v-5.18h-.15c-1.08,2.37-2.68,4.27-4.77,5.7-2.1,1.43-4.55,2.15-7.36,2.15-3.06,0-5.67-.5-7.84-1.52-2.17-1.01-3.96-2.41-5.37-4.18-1.41-1.78-2.43-3.86-3.07-6.25-.64-2.39-.96-4.95-.96-7.66s.38-5.09,1.15-7.44c.76-2.34,1.87-4.39,3.33-6.14,1.45-1.75,3.26-3.13,5.4-4.14,2.15-1.01,4.6-1.52,7.36-1.52,1.43,0,2.78.2,4.03.59,1.26.4,2.41.95,3.44,1.67,1.04.72,1.96,1.54,2.77,2.48.81.94,1.44,1.92,1.89,2.96h.15v-6.59h4.66v35.08c0,2.81-.31,5.35-.92,7.62ZM1634.78,362.31c1.53-.86,2.81-2,3.85-3.4,1.04-1.41,1.81-3.02,2.33-4.85.52-1.82.78-3.7.78-5.62s-.22-3.75-.67-5.62c-.44-1.87-1.16-3.58-2.15-5.11-.99-1.53-2.26-2.76-3.81-3.7-1.55-.94-3.44-1.41-5.66-1.41s-4.12.46-5.7,1.37c-1.58.91-2.89,2.11-3.92,3.59-1.04,1.48-1.79,3.17-2.26,5.07-.47,1.9-.7,3.84-.7,5.81s.25,3.8.74,5.62c.49,1.83,1.26,3.44,2.29,4.85,1.04,1.41,2.34,2.54,3.92,3.4,1.58.86,3.45,1.29,5.62,1.29,2.02,0,3.8-.43,5.33-1.29Z" style="fill:#00154c;"/><path d="M1662.76,329.79v8.95h.15c1.18-3.11,3.02-5.5,5.51-7.18,2.49-1.68,5.46-2.44,8.92-2.29v4.66c-2.12-.1-4.04.18-5.77.85-1.73.67-3.22,1.62-4.48,2.85-1.26,1.23-2.23,2.7-2.92,4.4-.69,1.7-1.04,3.56-1.04,5.59v20.35h-4.66v-38.18h4.29Z" style="fill:#00154c;"/><path d="M1685.92,335.71c.79-1.63,1.86-2.96,3.22-4,1.36-1.04,2.95-1.8,4.77-2.29,1.83-.49,3.85-.74,6.07-.74,1.68,0,3.35.16,5.03.48,1.68.32,3.18.92,4.51,1.81s2.42,2.13,3.26,3.74c.84,1.6,1.26,3.69,1.26,6.25v20.28c0,1.88.91,2.81,2.74,2.81.54,0,1.04-.1,1.48-.3v3.92c-.54.1-1.02.17-1.44.22-.42.05-.95.07-1.59.07-1.18,0-2.13-.16-2.85-.48-.72-.32-1.27-.78-1.67-1.37-.4-.59-.66-1.29-.78-2.11-.12-.81-.18-1.71-.18-2.7h-.15c-.84,1.23-1.69,2.33-2.55,3.29-.86.96-1.83,1.76-2.89,2.41-1.06.64-2.27,1.13-3.63,1.48-1.36.34-2.97.52-4.85.52-1.78,0-3.44-.21-5-.63-1.55-.42-2.91-1.08-4.07-2-1.16-.91-2.07-2.07-2.74-3.48-.67-1.41-1-3.07-1-5,0-2.66.59-4.75,1.78-6.25,1.18-1.5,2.75-2.65,4.7-3.44,1.95-.79,4.14-1.34,6.59-1.67,2.44-.32,4.92-.63,7.44-.92.99-.1,1.85-.22,2.59-.37.74-.15,1.36-.41,1.85-.78s.88-.88,1.15-1.52c.27-.64.41-1.48.41-2.52,0-1.58-.26-2.87-.78-3.88-.52-1.01-1.23-1.81-2.15-2.41-.91-.59-1.97-1-3.18-1.22-1.21-.22-2.5-.33-3.88-.33-2.96,0-5.38.7-7.25,2.11-1.88,1.41-2.86,3.66-2.96,6.77h-4.66c.15-2.22.62-4.14,1.41-5.77ZM1709.23,347.1c-.3.54-.86.94-1.7,1.18s-1.58.42-2.22.52c-1.97.35-4.01.65-6.11.92-2.1.27-4.01.68-5.73,1.22-1.73.54-3.15,1.32-4.25,2.33-1.11,1.01-1.67,2.46-1.67,4.33,0,1.18.23,2.23.7,3.15.47.91,1.1,1.7,1.89,2.37.79.67,1.7,1.17,2.74,1.52,1.04.35,2.1.52,3.18.52,1.78,0,3.48-.27,5.11-.81,1.63-.54,3.04-1.33,4.25-2.37,1.21-1.04,2.17-2.29,2.89-3.77.71-1.48,1.07-3.16,1.07-5.03v-6.07h-.15Z" style="fill:#00154c;"/><path d="M1730.83,329.79v7.25h.15c1.08-2.66,2.85-4.72,5.29-6.18,2.44-1.45,5.22-2.18,8.33-2.18,2.91,0,5.44.54,7.58,1.63,2.15,1.09,3.93,2.55,5.37,4.4,1.43,1.85,2.49,4,3.18,6.44.69,2.44,1.04,5.02,1.04,7.73s-.35,5.29-1.04,7.73c-.69,2.44-1.75,4.59-3.18,6.44-1.43,1.85-3.22,3.31-5.37,4.37-2.15,1.06-4.67,1.59-7.58,1.59-1.38,0-2.76-.17-4.14-.52-1.38-.35-2.66-.86-3.85-1.55-1.18-.69-2.23-1.55-3.14-2.59-.91-1.04-1.62-2.24-2.11-3.63h-.15v21.31h-4.66v-52.24h4.29ZM1756.4,343c-.47-1.95-1.21-3.69-2.22-5.22-1.01-1.53-2.31-2.77-3.88-3.74-1.58-.96-3.48-1.44-5.7-1.44-2.57,0-4.71.44-6.44,1.33-1.73.89-3.11,2.07-4.14,3.55-1.04,1.48-1.76,3.21-2.18,5.18-.42,1.97-.63,4.04-.63,6.22,0,1.97.23,3.93.7,5.88.47,1.95,1.23,3.69,2.29,5.22,1.06,1.53,2.44,2.78,4.14,3.74s3.79,1.44,6.25,1.44c2.22,0,4.12-.48,5.7-1.44,1.58-.96,2.87-2.21,3.88-3.74,1.01-1.53,1.75-3.27,2.22-5.22.47-1.95.7-3.91.7-5.88s-.23-3.93-.7-5.88Z" style="fill:#00154c;"/><path d="M1776.79,315.14v21.24h.15c.89-2.32,2.47-4.18,4.74-5.59,2.27-1.41,4.76-2.11,7.47-2.11s4.9.35,6.7,1.04c1.8.69,3.24,1.67,4.33,2.92,1.08,1.26,1.85,2.8,2.29,4.62.44,1.83.67,3.87.67,6.14v24.57h-4.66v-23.83c0-1.63-.15-3.14-.44-4.55s-.81-2.63-1.55-3.66-1.74-1.85-3-2.44c-1.26-.59-2.82-.89-4.7-.89s-3.54.33-4.99,1c-1.46.67-2.69,1.58-3.7,2.74-1.01,1.16-1.8,2.54-2.37,4.14-.57,1.6-.88,3.34-.92,5.22v22.27h-4.66v-52.84h4.66Z" style="fill:#00154c;"/><path d="M1819.85,315.14v7.47h-4.66v-7.47h4.66ZM1819.85,329.79v38.18h-4.66v-38.18h4.66Z" style="fill:#00154c;"/><path d="M1860.92,382.03v-21.31h-.15c-.49,1.38-1.2,2.59-2.11,3.63-.91,1.04-1.96,1.9-3.15,2.59-1.18.69-2.45,1.21-3.81,1.55-1.36.34-2.75.52-4.18.52-2.91,0-5.44-.53-7.59-1.59-2.15-1.06-3.93-2.52-5.36-4.37-1.43-1.85-2.49-4-3.18-6.44-.69-2.44-1.04-5.02-1.04-7.73s.34-5.29,1.04-7.73c.69-2.44,1.75-4.59,3.18-6.44,1.43-1.85,3.22-3.32,5.36-4.4,2.15-1.08,4.67-1.63,7.59-1.63,1.38,0,2.77.2,4.18.59,1.41.4,2.73.96,3.96,1.7,1.23.74,2.33,1.62,3.29,2.63.96,1.01,1.69,2.16,2.18,3.44h.15v-7.25h4.29v52.24h-4.66ZM1835.73,354.76c.47,1.95,1.21,3.69,2.22,5.22,1.01,1.53,2.3,2.78,3.88,3.74,1.58.96,3.48,1.44,5.7,1.44,2.47,0,4.55-.48,6.25-1.44,1.7-.96,3.08-2.21,4.14-3.74,1.06-1.53,1.82-3.27,2.29-5.22.47-1.95.7-3.91.7-5.88s-.23-3.93-.7-5.88c-.47-1.95-1.23-3.69-2.29-5.22-1.06-1.53-2.44-2.77-4.14-3.74-1.7-.96-3.79-1.44-6.25-1.44-2.22,0-4.12.48-5.7,1.44-1.58.96-2.88,2.21-3.88,3.74-1.01,1.53-1.75,3.27-2.22,5.22-.47,1.95-.7,3.91-.7,5.88s.23,3.93.7,5.88Z" style="fill:#00154c;"/><path d="M1904.29,367.97v-6.88h-.15c-1.23,2.57-3.02,4.53-5.36,5.88-2.34,1.36-4.95,2.04-7.81,2.04-2.42,0-4.48-.33-6.18-1s-3.08-1.62-4.14-2.85-1.84-2.74-2.33-4.51c-.49-1.78-.74-3.8-.74-6.07v-24.79h4.66v24.86c.1,3.45.9,6.07,2.4,7.84,1.5,1.78,4.11,2.66,7.81,2.66,2.02,0,3.75-.43,5.18-1.3,1.43-.86,2.61-2.01,3.55-3.44.94-1.43,1.63-3.07,2.07-4.92.44-1.85.67-3.74.67-5.66v-20.05h4.66v38.18h-4.29Z" style="fill:#00154c;"/><path d="M1924.01,355.36c.47,1.8,1.22,3.42,2.26,4.85s2.34,2.62,3.92,3.55c1.58.94,3.48,1.41,5.7,1.41,3.4,0,6.07-.89,7.99-2.66,1.92-1.78,3.26-4.14,4-7.1h4.66c-.99,4.34-2.8,7.7-5.44,10.06-2.64,2.37-6.38,3.55-11.21,3.55-3.01,0-5.61-.53-7.81-1.59-2.2-1.06-3.98-2.52-5.37-4.37-1.38-1.85-2.41-4-3.07-6.44-.67-2.44-1-5.02-1-7.73,0-2.52.33-4.98,1-7.4.67-2.42,1.69-4.58,3.07-6.47,1.38-1.9,3.17-3.43,5.37-4.59,2.19-1.16,4.8-1.74,7.81-1.74s5.67.62,7.84,1.85c2.17,1.23,3.93,2.85,5.29,4.85,1.36,2,2.33,4.29,2.92,6.88.59,2.59.84,5.22.74,7.88h-29.38c0,1.68.23,3.42.7,5.22ZM1947.1,341.11c-.57-1.63-1.37-3.07-2.4-4.33-1.04-1.26-2.29-2.27-3.77-3.03-1.48-.76-3.16-1.15-5.03-1.15s-3.63.38-5.11,1.15c-1.48.76-2.74,1.78-3.77,3.03-1.04,1.26-1.86,2.71-2.48,4.37-.62,1.65-1.02,3.34-1.22,5.07h24.72c-.05-1.78-.36-3.48-.92-5.11Z" style="fill:#00154c;"/><path d="M1412.56,411.14v52.84h-5.03v-52.84h5.03Z" style="fill:#00154c;"/><path d="M1430.47,425.79v6.59h.15c.89-2.32,2.47-4.18,4.74-5.59,2.27-1.41,4.76-2.11,7.47-2.11s4.9.35,6.7,1.04c1.8.69,3.24,1.67,4.33,2.92,1.08,1.26,1.85,2.8,2.29,4.62.44,1.83.67,3.87.67,6.14v24.57h-4.66v-23.83c0-1.63-.15-3.14-.44-4.55s-.81-2.63-1.55-3.66-1.74-1.85-3-2.44c-1.26-.59-2.82-.89-4.7-.89s-3.54.33-4.99,1c-1.46.67-2.69,1.58-3.7,2.74-1.01,1.16-1.8,2.54-2.37,4.14-.57,1.6-.88,3.34-.92,5.22v22.27h-4.66v-38.18h4.66Z" style="fill:#00154c;"/><path d="M1483.97,425.79v3.92h-7.77v25.75c0,1.53.21,2.73.63,3.59.42.86,1.47,1.34,3.15,1.44,1.33,0,2.66-.07,4-.22v3.92c-.69,0-1.38.02-2.07.07-.69.05-1.38.07-2.07.07-3.11,0-5.28-.6-6.51-1.81-1.23-1.21-1.83-3.44-1.78-6.7v-26.12h-6.66v-3.92h6.66v-11.47h4.66v11.47h7.77Z" style="fill:#00154c;"/><path d="M1497.33,451.36c.47,1.8,1.22,3.42,2.26,4.85s2.34,2.62,3.92,3.55c1.58.94,3.48,1.41,5.7,1.41,3.4,0,6.07-.89,7.99-2.66,1.92-1.78,3.26-4.14,4-7.1h4.66c-.99,4.34-2.8,7.7-5.44,10.06-2.64,2.37-6.38,3.55-11.21,3.55-3.01,0-5.61-.53-7.81-1.59-2.2-1.06-3.98-2.52-5.37-4.37-1.38-1.85-2.41-4-3.07-6.44-.67-2.44-1-5.02-1-7.73,0-2.52.33-4.98,1-7.4.67-2.42,1.69-4.58,3.07-6.47,1.38-1.9,3.17-3.43,5.37-4.59,2.19-1.16,4.8-1.74,7.81-1.74s5.67.62,7.84,1.85c2.17,1.23,3.93,2.85,5.29,4.85,1.36,2,2.33,4.29,2.92,6.88.59,2.59.84,5.22.74,7.88h-29.38c0,1.68.23,3.42.7,5.22ZM1520.42,437.11c-.57-1.63-1.37-3.07-2.4-4.33-1.04-1.26-2.29-2.27-3.77-3.03-1.48-.76-3.16-1.15-5.03-1.15s-3.63.38-5.11,1.15c-1.48.76-2.74,1.78-3.77,3.03-1.04,1.26-1.86,2.71-2.48,4.37-.62,1.65-1.02,3.34-1.22,5.07h24.72c-.05-1.78-.36-3.48-.92-5.11Z" style="fill:#00154c;"/><path d="M1539.77,425.79v8.95h.15c1.18-3.11,3.02-5.5,5.51-7.18,2.49-1.68,5.46-2.44,8.92-2.29v4.66c-2.12-.1-4.04.18-5.77.85-1.73.67-3.22,1.62-4.48,2.85-1.26,1.23-2.23,2.7-2.92,4.4-.69,1.7-1.04,3.56-1.04,5.59v20.35h-4.66v-38.18h4.29Z" style="fill:#00154c;"/><path d="M1567.88,425.79v6.59h.15c.89-2.32,2.47-4.18,4.74-5.59,2.27-1.41,4.76-2.11,7.47-2.11s4.9.35,6.7,1.04c1.8.69,3.24,1.67,4.33,2.92,1.08,1.26,1.85,2.8,2.29,4.62.44,1.83.67,3.87.67,6.14v24.57h-4.66v-23.83c0-1.63-.15-3.14-.44-4.55s-.81-2.63-1.55-3.66-1.74-1.85-3-2.44c-1.26-.59-2.82-.89-4.7-.89s-3.54.33-4.99,1c-1.46.67-2.69,1.58-3.7,2.74-1.01,1.16-1.8,2.54-2.37,4.14-.57,1.6-.88,3.34-.92,5.22v22.27h-4.66v-38.18h4.66Z" style="fill:#00154c;"/><path d="M1607.18,431.71c.79-1.63,1.86-2.96,3.22-4,1.36-1.04,2.95-1.8,4.77-2.29s3.85-.74,6.07-.74c1.68,0,3.35.16,5.03.48,1.68.32,3.18.93,4.51,1.81s2.42,2.13,3.26,3.74c.84,1.6,1.26,3.69,1.26,6.25v20.28c0,1.88.91,2.81,2.74,2.81.54,0,1.04-.1,1.48-.3v3.92c-.54.1-1.02.17-1.44.22-.42.05-.95.07-1.59.07-1.18,0-2.13-.16-2.85-.48-.72-.32-1.27-.78-1.67-1.37-.4-.59-.66-1.29-.78-2.11-.12-.81-.18-1.71-.18-2.7h-.15c-.84,1.23-1.69,2.33-2.55,3.29-.86.96-1.83,1.76-2.89,2.41-1.06.64-2.27,1.13-3.63,1.48-1.36.34-2.97.52-4.85.52-1.78,0-3.44-.21-5-.63-1.55-.42-2.91-1.08-4.07-2-1.16-.91-2.07-2.07-2.74-3.48-.67-1.41-1-3.07-1-5,0-2.66.59-4.75,1.78-6.25,1.18-1.5,2.75-2.65,4.7-3.44,1.95-.79,4.14-1.34,6.59-1.67,2.44-.32,4.92-.63,7.44-.92.99-.1,1.85-.22,2.59-.37.74-.15,1.36-.41,1.85-.78s.88-.88,1.15-1.52c.27-.64.41-1.48.41-2.52,0-1.58-.26-2.87-.78-3.88-.52-1.01-1.23-1.81-2.15-2.41-.91-.59-1.97-1-3.18-1.22-1.21-.22-2.5-.33-3.88-.33-2.96,0-5.38.7-7.25,2.11-1.88,1.41-2.86,3.66-2.96,6.77h-4.66c.15-2.22.62-4.14,1.41-5.77ZM1630.49,443.1c-.3.54-.86.94-1.7,1.18s-1.58.42-2.22.52c-1.97.35-4.01.65-6.11.92-2.1.27-4.01.68-5.73,1.22-1.73.54-3.15,1.32-4.25,2.33-1.11,1.01-1.67,2.46-1.67,4.33,0,1.18.23,2.23.7,3.15.47.91,1.1,1.7,1.89,2.37.79.67,1.7,1.17,2.74,1.52,1.04.35,2.1.52,3.18.52,1.78,0,3.48-.27,5.11-.81,1.63-.54,3.04-1.33,4.25-2.37,1.21-1.04,2.17-2.29,2.89-3.77.71-1.48,1.07-3.16,1.07-5.03v-6.07h-.15Z" style="fill:#00154c;"/><path d="M1662.97,425.79v3.92h-7.77v25.75c0,1.53.21,2.73.63,3.59.42.86,1.47,1.34,3.15,1.44,1.33,0,2.66-.07,4-.22v3.92c-.69,0-1.38.02-2.07.07-.69.05-1.38.07-2.07.07-3.11,0-5.28-.6-6.51-1.81-1.23-1.21-1.83-3.44-1.78-6.7v-26.12h-6.66v-3.92h6.66v-11.47h4.66v11.47h7.77Z" style="fill:#00154c;"/><path d="M1677.62,411.14v7.47h-4.66v-7.47h4.66ZM1677.62,425.79v38.18h-4.66v-38.18h4.66Z" style="fill:#00154c;"/><path d="M1713.62,426.31c2.24,1.09,4.13,2.54,5.66,4.37,1.53,1.83,2.69,3.96,3.48,6.4.79,2.44,1.18,5.04,1.18,7.81s-.4,5.37-1.18,7.81c-.79,2.44-1.95,4.58-3.48,6.4-1.53,1.83-3.42,3.27-5.66,4.33-2.25,1.06-4.82,1.59-7.73,1.59s-5.49-.53-7.73-1.59c-2.25-1.06-4.13-2.5-5.66-4.33s-2.69-3.96-3.48-6.4c-.79-2.44-1.18-5.04-1.18-7.81s.39-5.37,1.18-7.81c.79-2.44,1.95-4.58,3.48-6.4s3.42-3.28,5.66-4.37c2.24-1.08,4.82-1.63,7.73-1.63s5.49.54,7.73,1.63ZM1700.05,430.01c-1.68.94-3.07,2.17-4.18,3.7s-1.95,3.27-2.52,5.22c-.57,1.95-.85,3.93-.85,5.96s.28,4.01.85,5.96c.57,1.95,1.41,3.69,2.52,5.22,1.11,1.53,2.5,2.76,4.18,3.7,1.68.94,3.63,1.41,5.85,1.41s4.17-.47,5.85-1.41c1.68-.94,3.07-2.17,4.18-3.7,1.11-1.53,1.95-3.27,2.52-5.22.57-1.95.85-3.93.85-5.96s-.28-4.01-.85-5.96c-.57-1.95-1.41-3.69-2.52-5.22-1.11-1.53-2.5-2.76-4.18-3.7-1.68-.94-3.63-1.41-5.85-1.41s-4.17.47-5.85,1.41Z" style="fill:#00154c;"/><path d="M1738.67,425.79v6.59h.15c.89-2.32,2.47-4.18,4.74-5.59,2.27-1.41,4.76-2.11,7.47-2.11s4.9.35,6.7,1.04c1.8.69,3.24,1.67,4.33,2.92,1.08,1.26,1.85,2.8,2.29,4.62.44,1.83.67,3.87.67,6.14v24.57h-4.66v-23.83c0-1.63-.15-3.14-.44-4.55s-.81-2.63-1.55-3.66-1.74-1.85-3-2.44c-1.26-.59-2.82-.89-4.7-.89s-3.54.33-4.99,1c-1.46.67-2.69,1.58-3.7,2.74-1.01,1.16-1.8,2.54-2.37,4.14-.57,1.6-.88,3.34-.92,5.22v22.27h-4.66v-38.18h4.66Z" style="fill:#00154c;"/><path d="M1777.97,431.71c.79-1.63,1.86-2.96,3.22-4,1.36-1.04,2.95-1.8,4.77-2.29s3.85-.74,6.07-.74c1.68,0,3.35.16,5.03.48,1.68.32,3.18.93,4.51,1.81s2.42,2.13,3.26,3.74c.84,1.6,1.26,3.69,1.26,6.25v20.28c0,1.88.91,2.81,2.74,2.81.54,0,1.04-.1,1.48-.3v3.92c-.54.1-1.02.17-1.44.22-.42.05-.95.07-1.59.07-1.18,0-2.13-.16-2.85-.48-.72-.32-1.27-.78-1.67-1.37-.4-.59-.66-1.29-.78-2.11-.12-.81-.18-1.71-.18-2.7h-.15c-.84,1.23-1.69,2.33-2.55,3.29-.86.96-1.83,1.76-2.89,2.41-1.06.64-2.27,1.13-3.63,1.48-1.36.34-2.97.52-4.85.52-1.78,0-3.44-.21-5-.63-1.55-.42-2.91-1.08-4.07-2-1.16-.91-2.07-2.07-2.74-3.48-.67-1.41-1-3.07-1-5,0-2.66.59-4.75,1.78-6.25,1.18-1.5,2.75-2.65,4.7-3.44,1.95-.79,4.14-1.34,6.59-1.67,2.44-.32,4.92-.63,7.44-.92.99-.1,1.85-.22,2.59-.37.74-.15,1.36-.41,1.85-.78s.88-.88,1.15-1.52c.27-.64.41-1.48.41-2.52,0-1.58-.26-2.87-.78-3.88-.52-1.01-1.23-1.81-2.15-2.41-.91-.59-1.97-1-3.18-1.22-1.21-.22-2.5-.33-3.88-.33-2.96,0-5.38.7-7.25,2.11-1.88,1.41-2.86,3.66-2.96,6.77h-4.66c.15-2.22.62-4.14,1.41-5.77ZM1801.28,443.1c-.3.54-.86.94-1.7,1.18s-1.58.42-2.22.52c-1.97.35-4.01.65-6.11.92-2.1.27-4.01.68-5.73,1.22-1.73.54-3.15,1.32-4.25,2.33-1.11,1.01-1.67,2.46-1.67,4.33,0,1.18.23,2.23.7,3.15.47.91,1.1,1.7,1.89,2.37.79.67,1.7,1.17,2.74,1.52,1.04.35,2.1.52,3.18.52,1.78,0,3.48-.27,5.11-.81,1.63-.54,3.04-1.33,4.25-2.37,1.21-1.04,2.17-2.29,2.89-3.77.71-1.48,1.07-3.16,1.07-5.03v-6.07h-.15Z" style="fill:#00154c;"/><path d="M1823.33,411.14v52.84h-4.66v-52.84h4.66Z" style="fill:#00154c;"/><path d="M1838.91,451.36c.47,1.8,1.22,3.42,2.26,4.85s2.34,2.62,3.92,3.55c1.58.94,3.48,1.41,5.7,1.41,3.4,0,6.07-.89,7.99-2.66,1.92-1.78,3.26-4.14,4-7.1h4.66c-.99,4.34-2.8,7.7-5.44,10.06-2.64,2.37-6.38,3.55-11.21,3.55-3.01,0-5.61-.53-7.81-1.59-2.2-1.06-3.98-2.52-5.37-4.37-1.38-1.85-2.41-4-3.07-6.44-.67-2.44-1-5.02-1-7.73,0-2.52.33-4.98,1-7.4.67-2.42,1.69-4.58,3.07-6.47,1.38-1.9,3.17-3.43,5.37-4.59,2.19-1.16,4.8-1.74,7.81-1.74s5.67.62,7.84,1.85c2.17,1.23,3.93,2.85,5.29,4.85,1.36,2,2.33,4.29,2.92,6.88.59,2.59.84,5.22.74,7.88h-29.38c0,1.68.23,3.42.7,5.22ZM1861.99,437.11c-.57-1.63-1.37-3.07-2.4-4.33-1.04-1.26-2.29-2.27-3.77-3.03-1.48-.76-3.16-1.15-5.03-1.15s-3.63.38-5.11,1.15c-1.48.76-2.74,1.78-3.77,3.03-1.04,1.26-1.86,2.71-2.48,4.37-.62,1.65-1.02,3.34-1.22,5.07h24.72c-.05-1.78-.36-3.48-.92-5.11Z" style="fill:#00154c;"/></g></svg>